<svg width="346" height="146" viewBox="0 0 346 146" fill="none" xmlns="http://www.w3.org/2000/svg">
<path d="M338.414 145.582H10.8682C7.10597 145.582 4.03192 142.508 4.03192 138.745V7.11172C4.03192 3.34945 7.10597 0.275391 10.8682 0.275391H338.414C342.176 0.275391 345.25 3.34945 345.25 7.11172V138.745C345.25 142.508 342.176 145.582 338.414 145.582Z" fill="#6DC1F1"/>
<path d="M334.973 145.582H7.42714C3.66487 145.582 0.59082 142.508 0.59082 138.745V7.11172C0.59082 3.34945 3.66487 0.275391 7.42714 0.275391H334.973C338.735 0.275391 341.809 3.34945 341.809 7.11172V138.745C341.855 142.508 338.781 145.582 334.973 145.582Z" fill="#ADE1F8"/>
<path d="M324.091 123.965H267.52C266.235 123.965 265.18 122.909 265.18 121.625V24.9537C265.18 23.669 266.235 22.6138 267.52 22.6138H324.091C325.376 22.6138 326.431 23.669 326.431 24.9537V121.625C326.385 122.909 325.376 123.965 324.091 123.965Z" fill="#6DC1F1"/>
<path d="M313.951 81.4331H277.155C276.88 81.4331 276.65 81.2036 276.65 80.9283V79.2308C276.65 78.9555 276.88 78.7261 277.155 78.7261H313.951C314.227 78.7261 314.456 78.9555 314.456 79.2308V80.9283C314.456 81.2036 314.227 81.4331 313.951 81.4331Z" fill="#2192E3"/>
<path d="M304.065 116.899H287.547C287.134 116.899 286.767 116.532 286.767 116.119V111.99C286.767 111.577 287.134 111.21 287.547 111.21H304.065C304.477 111.21 304.844 111.577 304.844 111.99V116.073C304.844 116.532 304.477 116.899 304.065 116.899Z" fill="#2192E3"/>
<path d="M299.637 114.651H291.975C291.654 114.651 291.379 114.376 291.379 114.054C291.379 113.733 291.654 113.458 291.975 113.458H299.637C299.959 113.458 300.234 113.733 300.234 114.054C300.234 114.376 299.959 114.651 299.637 114.651Z" fill="#6DC1F1"/>
<path opacity="0.5" d="M295.645 66.1652C305.372 66.1652 313.264 58.2737 313.264 48.547C313.264 38.8202 305.372 30.9287 295.645 30.9287C285.919 30.9287 278.027 38.8202 278.027 48.547C278.027 58.2737 285.919 66.1652 295.645 66.1652Z" fill="#2192E3"/>
<path d="M293.894 45.7266L287.735 47.574C287.25 47.7196 286.824 48.0179 286.522 48.4246C286.219 48.8312 286.056 49.3245 286.056 49.8313V55.9136C286.056 56.33 286.222 56.7294 286.517 57.0238C286.811 57.3182 287.21 57.4835 287.627 57.4835H293.894V45.7266Z" fill="#6DC1F1"/>
<path d="M290.757 54.3481H289.193C288.76 54.3481 288.408 54.7001 288.408 55.1335V57.4834H291.543V55.1335C291.543 54.7001 291.191 54.3481 290.757 54.3481V54.3481Z" fill="#0B5B88"/>
<path d="M303.297 38.6724H295.465C294.597 38.6724 293.894 39.3754 293.894 40.2431V57.4835H303.297C303.713 57.4835 304.113 57.318 304.407 57.0235C304.702 56.7289 304.867 56.3294 304.867 55.9128V40.2431C304.867 39.3754 304.164 38.6724 303.297 38.6724Z" fill="#2192E3"/>
<path d="M300.946 45.0957H297.813C297.29 45.0957 297.242 45.2769 297.242 45.5545C297.242 45.8595 297.221 46.0133 297.813 46.0133H300.946C301.538 46.0133 301.591 45.8595 301.591 45.5545C301.591 45.2769 301.469 45.0957 300.946 45.0957Z" fill="white"/>
<path d="M300.946 47.6299H297.813C297.29 47.6299 297.242 47.8111 297.242 48.0887C297.242 48.3936 297.221 48.5475 297.813 48.5475H300.946C301.538 48.5475 301.591 48.3936 301.591 48.0887C301.591 47.8111 301.469 47.6299 300.946 47.6299Z" fill="white"/>
<g opacity="0.15">
<path opacity="0.15" d="M282.798 76.432L281.1 76.5238C281.009 76.5238 280.963 76.4779 280.917 76.3861C280.917 76.2944 280.963 76.2485 281.055 76.2026L282.706 76.1108C282.798 76.1108 282.844 76.1567 282.89 76.2485C282.936 76.3402 282.89 76.3861 282.798 76.432Z" fill="black"/>
</g>
<g opacity="0.7">
<path d="M316.52 88.6361H275.044C274.631 88.6361 274.31 88.315 274.31 87.9021C274.31 87.4891 274.631 87.168 275.044 87.168H316.52C316.933 87.168 317.254 87.4891 317.254 87.9021C317.254 88.315 316.933 88.6361 316.52 88.6361Z" fill="#ADE1F8"/>
<path d="M316.52 95.1972H275.044C274.631 95.1972 274.31 94.876 274.31 94.4631C274.31 94.0502 274.631 93.729 275.044 93.729H316.52C316.933 93.729 317.254 94.0502 317.254 94.4631C317.254 94.876 316.933 95.1972 316.52 95.1972Z" fill="#ADE1F8"/>
<path d="M307.207 101.712H284.404C283.991 101.712 283.67 101.391 283.67 100.978C283.67 100.565 283.991 100.244 284.404 100.244H307.207C307.62 100.244 307.941 100.565 307.941 100.978C307.941 101.391 307.62 101.712 307.207 101.712Z" fill="#ADE1F8"/>
</g>
<path d="M166.578 132.315H100.647C99.1329 132.315 97.9399 131.122 97.9399 129.608V16.9697C97.9399 15.4556 99.1329 14.2627 100.647 14.2627H166.578C168.093 14.2627 169.285 15.4556 169.285 16.9697V129.608C169.285 131.122 168.047 132.315 166.578 132.315Z" fill="white"/>
<path d="M154.787 82.7635H111.888C111.567 82.7635 111.291 82.4882 111.291 82.167V80.1941C111.291 79.8729 111.567 79.5977 111.888 79.5977H154.741C155.062 79.5977 155.337 79.8729 155.337 80.1941V82.167C155.337 82.4882 155.108 82.7635 154.787 82.7635Z" fill="#3F4249"/>
<path d="M157.769 91.16H109.41C108.952 91.16 108.584 90.793 108.584 90.3342C108.584 89.8753 108.952 89.5083 109.41 89.5083H157.769C158.228 89.5083 158.595 89.8753 158.595 90.3342C158.595 90.793 158.228 91.16 157.769 91.16Z" fill="#6DC1F1"/>
<path d="M157.769 98.7763H109.41C108.952 98.7763 108.584 98.4092 108.584 97.9504C108.584 97.4916 108.952 97.1245 109.41 97.1245H157.769C158.228 97.1245 158.595 97.4916 158.595 97.9504C158.595 98.4092 158.228 98.7763 157.769 98.7763Z" fill="#6DC1F1"/>
<path d="M146.895 106.392H120.284C119.825 106.392 119.458 106.025 119.458 105.567C119.458 105.108 119.825 104.741 120.284 104.741H146.895C147.354 104.741 147.721 105.108 147.721 105.567C147.721 106.025 147.354 106.392 146.895 106.392Z" fill="#6DC1F1"/>
<path opacity="0.3" d="M133.59 65.1453C144.922 65.1453 154.145 55.9232 154.145 44.5905C154.145 33.2578 144.922 24.0356 133.59 24.0356C122.257 24.0356 113.035 33.2578 113.035 44.5905C113.035 55.9232 122.257 65.1453 133.59 65.1453Z" fill="#2192E3"/>
<path d="M140.902 47.8601C140.055 46.9907 139.037 46.3056 137.912 45.8484C138.843 45.1796 139.601 44.2977 140.121 43.2761C140.641 42.2545 140.909 41.1231 140.902 39.9764C140.913 39.6311 140.895 39.2854 140.848 38.9434C139.924 38.889 135.248 38.6715 133.617 35.6812C131.931 38.6715 127.255 38.889 126.331 38.9434C126.284 39.2854 126.266 39.6311 126.277 39.9764C126.27 41.1231 126.538 42.2545 127.058 43.2761C127.578 44.2977 128.336 45.1796 129.267 45.8484C128.142 46.3056 127.124 46.9907 126.277 47.8601C124.745 49.4314 123.887 51.5377 123.884 53.7321V54.602C125.562 55.8889 127.478 56.8306 129.522 57.3716C131.566 57.9131 133.697 58.0436 135.791 57.7555C138.519 57.3553 141.1 56.2701 143.294 54.602V53.7321C143.292 51.5377 142.434 49.4314 140.902 47.8601Z" fill="white"/>
<path d="M125.299 38.8887V44.217C125.307 45.5126 125.644 46.7843 126.277 47.9142C127.112 47.0431 128.135 46.3738 129.268 45.9568C128.336 45.2766 127.578 44.3844 127.059 43.3541C126.538 42.3238 126.271 41.1847 126.277 40.0305C126.269 39.7037 126.287 39.3764 126.332 39.0518C127.256 38.9974 131.932 38.7799 133.563 35.844V32.7449V32.473V31.2769H132.911C130.892 31.2769 128.956 32.0788 127.528 33.5066C126.101 34.9338 125.299 36.8699 125.299 38.8887Z" fill="#2192E3"/>
<path d="M134.27 31.2769H133.563V32.473V32.6905V35.7896H133.617C135.065 38.158 138.245 38.8887 140.849 38.8887C140.915 39.2296 140.951 39.5748 140.957 39.9217C140.956 41.0668 140.684 42.1949 140.164 43.2155C139.645 44.2355 138.892 45.119 137.967 45.7937C139.073 46.2319 140.074 46.8991 140.903 47.751H140.957C141.574 46.6174 141.892 45.3452 141.882 44.0539V38.78C141.839 36.7846 141.02 34.8843 139.599 33.4832C138.177 32.0821 136.266 31.291 134.27 31.2769Z" fill="#2192E3"/>
<path d="M140.754 41.6763C140.227 42.353 139.107 43.2268 137.997 43.2268H136.567C136.518 42.977 136.298 42.7885 136.034 42.7885H135.105C134.805 42.7885 134.562 43.0319 134.562 43.3322V44.2608C134.562 44.5611 134.805 44.8045 135.105 44.8045H136.034C136.316 44.8045 136.548 44.5893 136.575 44.3142H137.997C139.617 44.3142 141.017 43.1083 141.612 42.3446L140.754 41.6763Z" fill="#2192E3"/>
<path d="M143.248 124.057H123.978C123.474 124.057 123.061 123.644 123.061 123.139V118.414C123.061 117.909 123.474 117.496 123.978 117.496H143.248C143.753 117.496 144.166 117.909 144.166 118.414V123.185C144.166 123.69 143.753 124.057 143.248 124.057Z" fill="#2192E3"/>
<path d="M138.086 121.442H129.139C128.772 121.442 128.451 121.121 128.451 120.754C128.451 120.387 128.772 120.065 129.139 120.065H138.086C138.453 120.065 138.774 120.387 138.774 120.754C138.774 121.167 138.453 121.442 138.086 121.442Z" fill="white"/>
<path d="M158.596 26.1916C160.247 26.1916 161.578 24.8611 161.578 23.2093C161.578 21.5576 160.247 20.2271 158.596 20.2271C156.944 20.2271 155.613 21.5576 155.613 23.2093C155.613 24.8611 156.944 26.1916 158.596 26.1916Z" fill="#2192E3"/>
<path d="M158.778 21.466L159.191 22.2919C159.237 22.3378 159.283 22.3837 159.329 22.3837L160.247 22.5213C160.384 22.5213 160.43 22.7048 160.338 22.7966L159.65 23.4389C159.604 23.4848 159.604 23.5307 159.604 23.5766L159.742 24.4942C159.788 24.6318 159.604 24.7236 159.513 24.6777L158.687 24.2189C158.641 24.173 158.595 24.173 158.549 24.2189L157.723 24.6777C157.586 24.7236 157.448 24.6318 157.494 24.4942L157.631 23.5766C157.631 23.5307 157.631 23.4848 157.586 23.4389L156.897 22.7966C156.806 22.7048 156.851 22.5213 156.989 22.5213L157.907 22.3837C157.953 22.3837 157.999 22.3378 158.044 22.2919L158.457 21.466C158.503 21.3284 158.687 21.3284 158.778 21.466Z" fill="white"/>
<path d="M155.751 25.3662L154.833 27.7061L156.301 27.4767L157.219 28.6238L157.953 26.7427C157.036 26.5591 156.256 26.0544 155.751 25.3662Z" fill="#2192E3"/>
<path d="M161.486 25.3662C160.981 26.0544 160.155 26.5591 159.284 26.7427L160.018 28.6238L160.935 27.4767L162.403 27.7061L161.486 25.3662Z" fill="#2192E3"/>
<path d="M78.2793 123.965H21.7076C20.423 123.965 19.3677 122.91 19.3677 121.625V24.9532C19.3677 23.6685 20.423 22.6133 21.7076 22.6133H78.2793C79.564 22.6133 80.6193 23.6685 80.6193 24.9532V121.625C80.5734 122.91 79.564 123.965 78.2793 123.965Z" fill="#6DC1F1"/>
<path d="M68.1392 81.4331H31.3424C31.0671 81.4331 30.8376 81.2037 30.8376 80.9284V79.2308C30.8376 78.9555 31.0671 78.7261 31.3424 78.7261H68.1392C68.4145 78.7261 68.6439 78.9555 68.6439 79.2308V80.9284C68.6439 81.2037 68.4145 81.4331 68.1392 81.4331Z" fill="#2192E3"/>
<path d="M58.252 116.899H41.7347C41.3218 116.899 40.9548 116.532 40.9548 116.119V111.99C40.9548 111.577 41.3218 111.21 41.7347 111.21H58.252C58.6649 111.21 59.032 111.577 59.032 111.99V116.073C59.032 116.532 58.6649 116.899 58.252 116.899Z" fill="#2192E3"/>
<path d="M53.8248 114.651H46.1626C45.8414 114.651 45.5662 114.376 45.5662 114.054C45.5662 113.733 45.8414 113.458 46.1626 113.458H53.8248C54.146 113.458 54.4213 113.733 54.4213 114.054C54.4213 114.376 54.146 114.651 53.8248 114.651Z" fill="#6DC1F1"/>
<path opacity="0.5" d="M49.833 66.1651C59.5599 66.1651 67.4515 58.2735 67.4515 48.5467C67.4515 38.8198 59.5599 30.9282 49.833 30.9282C40.1062 30.9282 32.2146 38.8198 32.2146 48.5467C32.2146 58.2735 40.1062 66.1651 49.833 66.1651Z" fill="#2192E3"/>
<path d="M57.8569 57.3796L53.2344 39.4023C53.1885 39.2236 53.0845 39.0652 52.9389 38.9521C52.793 38.839 52.6139 38.7773 52.4294 38.7769H49.863C49.6781 38.7773 49.4987 38.8388 49.3527 38.9519C49.2064 39.065 49.1022 39.2236 49.0559 39.4023L44.4355 57.3796C44.4175 57.4494 44.4081 57.5211 44.4077 57.5931C44.4122 57.811 44.5019 58.0183 44.6575 58.1709C44.8132 58.3233 45.0224 58.4087 45.2404 58.4085H47.5741C47.7652 58.4083 47.9505 58.3425 48.0989 58.2221C48.2475 58.1015 48.35 57.9337 48.3897 57.7468L48.8381 55.578C48.8518 55.5129 48.8874 55.4544 48.9391 55.4126C48.9908 55.3706 49.0555 55.3477 49.1221 55.3475H53.1789C53.2455 55.3473 53.3104 55.3701 53.362 55.412C53.4139 55.454 53.4494 55.5127 53.4628 55.578L53.9133 57.7468C53.952 57.934 54.0543 58.1017 54.2024 58.2223C54.3506 58.3429 54.5357 58.4087 54.7268 58.4085H57.0605C57.1854 58.4066 57.3084 58.3767 57.4201 58.3207C57.532 58.2648 57.6298 58.1846 57.7062 58.0857C57.7829 57.9869 57.836 57.8721 57.8621 57.75C57.8881 57.6276 57.8864 57.5011 57.8569 57.3796ZM52.2031 51.8297H50.0829C50.0276 51.8297 49.9729 51.8174 49.923 51.7934C49.873 51.7695 49.829 51.735 49.794 51.6921C49.7592 51.6494 49.7342 51.5992 49.721 51.5454C49.7078 51.4918 49.7067 51.4357 49.7178 51.3815L50.7854 46.2948C50.7888 46.2758 50.7946 46.2572 50.8025 46.2393C50.8308 46.1644 50.8829 46.1003 50.9508 46.0574C51.0187 46.0143 51.0986 45.9945 51.1787 46.0009C51.2587 46.0071 51.3347 46.0391 51.3949 46.092C51.4554 46.1452 51.497 46.2163 51.5134 46.2948L52.581 51.3815C52.5919 51.4361 52.5904 51.4923 52.5765 51.5461C52.5629 51.5998 52.5373 51.65 52.5016 51.6925C52.4659 51.7352 52.4211 51.7691 52.3707 51.7922C52.3201 51.8152 52.265 51.8265 52.2095 51.8255L52.2031 51.8297Z" fill="#2192E3"/>
<path d="M56.701 57.3715L52.0834 39.402C52.038 39.2234 51.9343 39.0649 51.7886 38.9516C51.643 38.8383 51.4638 38.7769 51.2793 38.7769H48.7094C48.5251 38.7769 48.3459 38.8383 48.2003 38.9516C48.0546 39.0649 47.9509 39.2234 47.9053 39.402L44.6528 52.0609L44.4715 52.7607L44.1644 53.93L43.8767 55.0501L43.2793 57.3715C43.2482 57.4942 43.2456 57.6224 43.2714 57.7462C43.2972 57.8702 43.3508 57.9864 43.4284 58.0865C43.5058 58.1864 43.6052 58.2674 43.7187 58.3233C43.8323 58.379 43.9569 58.4083 44.0834 58.4085H46.4145C46.6056 58.4083 46.7907 58.3426 46.9389 58.2222C47.0872 58.1017 47.1898 57.934 47.2292 57.7471L47.6771 55.5793C47.691 55.5142 47.7266 55.4557 47.7782 55.4139C47.8298 55.3719 47.8944 55.3491 47.9608 55.3488H52.013C52.0793 55.3491 52.1435 55.3721 52.1949 55.4141C52.2461 55.4559 52.2813 55.5144 52.2945 55.5793L52.7445 57.7471C52.7838 57.934 52.886 58.1014 53.0338 58.222C53.1818 58.3423 53.3665 58.4083 53.5571 58.4085H55.8946C56.0213 58.4085 56.1463 58.3797 56.2602 58.324C56.3739 58.2683 56.4735 58.1874 56.5513 58.0874C56.6292 57.9873 56.6829 57.8708 56.7089 57.7468C56.7347 57.6227 56.7322 57.4944 56.701 57.3715ZM48.9354 51.8241C48.8802 51.8241 48.8258 51.8117 48.7759 51.7878C48.726 51.7639 48.6821 51.7293 48.6471 51.6864C48.6123 51.6438 48.5874 51.5936 48.5741 51.5399C48.5609 51.4863 48.5598 51.4302 48.5707 51.376L49.6371 46.2915C49.6537 46.213 49.6951 46.142 49.7555 46.0888C49.8156 46.0359 49.8916 46.0039 49.9715 45.9977C50.0515 45.9913 50.1315 46.0112 50.1991 46.0543C50.2669 46.0972 50.319 46.1612 50.3473 46.2361C50.3554 46.254 50.361 46.2725 50.3644 46.2915L51.4158 51.3696C51.4274 51.4238 51.4265 51.4797 51.4137 51.5332C51.4007 51.587 51.376 51.6372 51.3414 51.68C51.3066 51.7229 51.2627 51.7577 51.2128 51.7814C51.1631 51.8053 51.1085 51.8177 51.0533 51.8177L48.9354 51.8241Z" fill="white"/>
<g opacity="0.15">
<path opacity="0.15" d="M36.9856 76.432L35.2879 76.5238C35.1962 76.5238 35.1503 76.4779 35.1044 76.3861C35.1044 76.2944 35.1503 76.2485 35.2421 76.2026L36.8938 76.1108C36.9855 76.1108 37.0314 76.1567 37.0773 76.2485C37.1232 76.3402 37.0773 76.3861 36.9856 76.432Z" fill="black"/>
</g>
<g opacity="0.7">
<path d="M70.7085 88.6361H29.2317C28.8188 88.6361 28.4976 88.315 28.4976 87.9021C28.4976 87.4891 28.8188 87.168 29.2317 87.168H70.7085C71.1214 87.168 71.4425 87.4891 71.4425 87.9021C71.4425 88.315 71.1214 88.6361 70.7085 88.6361Z" fill="#ADE1F8"/>
<path d="M70.7079 95.1972H29.2312C28.8182 95.1972 28.4971 94.876 28.4971 94.4631C28.4971 94.0502 28.8182 93.729 29.2312 93.729H70.7079C71.1208 93.729 71.442 94.0502 71.442 94.4631C71.442 94.876 71.1208 95.1972 70.7079 95.1972Z" fill="#ADE1F8"/>
<path d="M61.3944 101.712H38.5914C38.1785 101.712 37.8573 101.391 37.8573 100.978C37.8573 100.565 38.1785 100.244 38.5914 100.244H61.3944C61.8074 100.244 62.1285 100.565 62.1285 100.978C62.1285 101.391 61.8074 101.712 61.3944 101.712Z" fill="#ADE1F8"/>
</g>
<path d="M245.52 123.965H188.948C187.663 123.965 186.608 122.91 186.608 121.625V24.9532C186.608 23.6685 187.663 22.6133 188.948 22.6133H245.52C246.804 22.6133 247.859 23.6685 247.859 24.9532V121.625C247.814 122.91 246.804 123.965 245.52 123.965Z" fill="#6DC1F1"/>
<path d="M235.38 81.4331H198.583C198.308 81.4331 198.078 81.2037 198.078 80.9284V79.2308C198.078 78.9555 198.308 78.7261 198.583 78.7261H235.38C235.655 78.7261 235.884 78.9555 235.884 79.2308V80.9284C235.884 81.2037 235.655 81.4331 235.38 81.4331Z" fill="#2192E3"/>
<path d="M225.492 116.899H208.975C208.562 116.899 208.195 116.532 208.195 116.119V111.99C208.195 111.577 208.562 111.21 208.975 111.21H225.492C225.905 111.21 226.272 111.577 226.272 111.99V116.073C226.272 116.532 225.905 116.899 225.492 116.899Z" fill="#2192E3"/>
<path d="M221.065 114.651H213.403C213.082 114.651 212.806 114.376 212.806 114.054C212.806 113.733 213.082 113.458 213.403 113.458H221.065C221.386 113.458 221.661 113.733 221.661 114.054C221.661 114.376 221.386 114.651 221.065 114.651Z" fill="#6DC1F1"/>
<path opacity="0.5" d="M217.073 66.1089C226.799 66.1089 234.691 58.2173 234.691 48.4905C234.691 38.7637 226.799 30.8721 217.073 30.8721C207.346 30.8721 199.454 38.7637 199.454 48.4905C199.454 58.2173 207.346 66.1089 217.073 66.1089Z" fill="#2192E3"/>
<path d="M214.589 40.8701H208.96C207.919 40.8701 207.084 41.7051 207.084 42.7464V54.0041C207.084 55.0332 207.931 55.8803 208.96 55.8803H223.971C225 55.8803 225.847 55.0332 225.847 54.0041V44.6227C225.847 44.3763 225.798 44.1323 225.704 43.9047C225.61 43.677 225.472 43.4702 225.297 43.2959C225.123 43.1217 224.916 42.9835 224.689 42.8892C224.461 42.7949 224.217 42.7464 223.971 42.7464H216.465L214.589 40.8701V40.8701Z" fill="#2192E3"/>
<path d="M225.989 48.1246H223.739V46.9988C223.739 46.6892 223.615 46.4078 223.406 46.2061C223.303 46.1002 223.18 46.0161 223.043 45.9589C222.907 45.9016 222.761 45.8725 222.613 45.8731H220.363C219.743 45.8731 219.238 46.3797 219.238 46.9988V48.1237H216.987C216.368 48.1237 215.861 48.6302 215.861 49.2494V55.4393C215.861 56.0575 216.368 56.565 216.987 56.565H225.989C226.609 56.565 227.115 56.0575 227.115 55.4393V49.2494C227.115 48.6302 226.609 48.1237 225.989 48.1237V48.1246ZM220.363 46.9988H222.614V48.1246H220.363L220.363 46.9988ZM221.206 54.3136C221.05 54.469 220.798 54.469 220.643 54.3135C220.488 54.1581 220.488 53.906 220.643 53.7506L221.628 52.7654C221.861 52.5324 221.861 52.1545 221.628 51.9215L220.643 50.9371C220.488 50.7817 220.488 50.5297 220.643 50.3742C220.798 50.2188 221.05 50.2188 221.206 50.3742L222.613 51.7814C222.924 52.0923 222.924 52.5963 222.613 52.9072L221.206 54.3136Z" fill="white"/>
<g opacity="0.15">
<path opacity="0.15" d="M204.225 76.432L202.528 76.5238C202.436 76.5238 202.39 76.4779 202.344 76.3861C202.344 76.2944 202.39 76.2485 202.482 76.2026L204.133 76.1108C204.225 76.1108 204.271 76.1567 204.317 76.2485C204.363 76.3402 204.317 76.3861 204.225 76.432Z" fill="black"/>
</g>
<g opacity="0.7">
<path d="M237.948 88.6361H196.471C196.058 88.6361 195.737 88.315 195.737 87.9021C195.737 87.4891 196.058 87.168 196.471 87.168H237.948C238.361 87.168 238.682 87.4891 238.682 87.9021C238.682 88.315 238.361 88.6361 237.948 88.6361Z" fill="#ADE1F8"/>
<path d="M237.947 95.1972H196.471C196.058 95.1972 195.737 94.876 195.737 94.4631C195.737 94.0502 196.058 93.729 196.471 93.729H237.947C238.36 93.729 238.681 94.0502 238.681 94.4631C238.681 94.876 238.36 95.1972 237.947 95.1972Z" fill="#ADE1F8"/>
<path d="M228.633 101.712H205.83C205.417 101.712 205.096 101.391 205.096 100.978C205.096 100.565 205.417 100.244 205.83 100.244H228.633C229.046 100.244 229.368 100.565 229.368 100.978C229.368 101.391 229.046 101.712 228.633 101.712Z" fill="#ADE1F8"/>
</g>
</svg>
