<svg width="115" height="36" viewBox="0 0 115 36" fill="none" xmlns="http://www.w3.org/2000/svg">
<path fill-rule="evenodd" clip-rule="evenodd" d="M4.49353 2.24493C4.07742 1.16641 4.85884 0 5.99748 0H16.9423C17.6087 0 18.2067 0.41632 18.4482 1.04834L20.3176 5.94106C22.0249 4.13983 24.3702 3.02439 26.9564 3.02439H32.893C33.7853 3.02439 34.5087 3.76048 34.5087 4.66849V6.18248C34.5087 8.81416 32.7798 11.029 30.4625 11.5871C29.9631 13.9633 28.0271 15.7733 25.675 15.9055C25.9259 16.2288 26.182 16.5466 26.4431 16.8578C27.5398 18.1656 27.9696 19.9001 27.6238 21.6144C27.2781 23.3289 26.2173 24.7221 24.7111 25.432L20.2105 27.5533L16.9793 32.3983C16.7789 32.6989 16.5617 32.9833 16.3297 33.2505H30.28C31.0012 33.2505 31.5754 33.8719 31.5754 34.6252C31.5754 35.3535 31.0389 35.9581 30.3513 35.9978L30.3476 35.998L30.28 35.9999L10.4865 35.9998L10.4378 36H3.54347C1.5835 36 0 34.2976 0 32.2191C0 30.1405 1.58343 28.4382 3.54339 28.4382H4.87936L11.1731 19.5578L4.49353 2.24493ZM15.7916 2.7028L8.18424 2.70283C7.75143 2.70283 7.4562 3.14861 7.61866 3.55683L8.5569 5.91428L15.7916 2.7028ZM9.61077 8.54615L10.3761 10.5214L17.9167 7.18216L17.1513 5.20694L9.61077 8.54615ZM26.8579 5.51743C23.016 5.51743 19.8801 8.84736 19.8801 12.9532V13.0471H25.2868C26.757 13.0471 27.9634 11.7716 27.9634 10.1911V8.83633H29.2417C30.7119 8.83633 31.9181 7.56077 31.9182 5.98027V5.51743H26.8579ZM11.3771 13.095L14.0538 19.9352L11.2887 23.7987L16.8632 27.879L18.5631 25.3547L23.7384 22.9392C24.4971 22.5851 25.0338 21.8898 25.2095 21.0274C25.3851 20.1648 25.1668 19.2953 24.6117 18.64C23.8745 17.7695 23.1723 16.8521 22.5177 15.9063H20.2498C18.7387 15.9063 17.5138 14.6598 17.5138 13.1222C17.5138 12.117 17.654 11.1457 17.9145 10.2287L11.3771 13.095ZM30.7188 23.3262H32.6181C33.3393 23.3262 33.9136 23.9476 33.9136 24.7008C33.9136 25.4292 33.3771 26.0338 32.6894 26.0734L32.6857 26.0736L32.6181 26.0755L30.7188 26.0755C29.9977 26.0755 29.4234 25.4541 29.4234 24.7008C29.4234 23.9725 29.9599 23.3679 30.6475 23.3282L30.6512 23.328L30.7188 23.3262ZM9.73937 25.7777L6.14378 31.0349H3.58026C3.04511 31.0349 2.59084 31.521 2.59084 32.1427C2.59084 32.7643 3.04514 33.2506 3.58026 33.2506H6.94408L6.94759 33.2505L10.3913 33.2505C12.1235 33.2427 13.7613 32.3066 14.7722 30.7359L15.2478 29.9968L9.73937 25.7777ZM23.904 28.2884H34.377C35.0982 28.2884 35.6725 28.9098 35.6725 29.663C35.6725 30.3914 35.1359 30.996 34.4483 31.0356L34.4446 31.0358L34.377 31.0377L23.904 31.0377C23.1829 31.0377 22.6086 30.4163 22.6086 29.663C22.6086 28.9347 23.1451 28.33 23.8327 28.2904L23.8365 28.2902L23.904 28.2884Z" fill="url(#paint0_linear)"/>
<path fill-rule="evenodd" clip-rule="evenodd" d="M90.2924 27.4444C88.7911 28.2983 87.0545 28.7252 85.0825 28.7252C84.0343 28.7252 83.0306 28.5972 82.0712 28.341C81.4071 28.1636 80.8112 27.9386 80.2833 27.6658C79.8891 27.462 79.7599 26.9778 79.95 26.5774L81.1836 23.9787C81.3666 23.5933 81.8589 23.4757 82.24 23.6685C83.0144 24.0604 83.9264 24.2564 84.9759 24.2564C86.3084 24.2564 87.3876 23.8626 88.2137 23.0751C89.0399 22.2876 89.524 21.1443 89.6661 19.6452C88.6002 20.6129 87.2055 21.0968 85.4823 21.0968C84.3097 21.0968 83.2349 20.8359 82.2578 20.3141C81.2806 19.7922 80.5034 19.0522 79.926 18.0939C79.3486 17.1356 79.0599 16.0397 79.0599 14.8062C79.0599 13.4589 79.3841 12.2682 80.0326 11.234C80.681 10.1998 81.5605 9.40278 82.6708 8.84298C83.7812 8.28319 85.0115 8.00329 86.3617 8.00329C89.0443 8.00329 91.1584 8.84773 92.7041 10.5366C94.2497 12.2255 95.0225 14.6544 95.0225 17.8234C95.0225 20.1006 94.6095 22.0599 93.7833 23.7013C92.9572 25.3427 91.7936 26.5904 90.2924 27.4444ZM84.8779 16.3725C85.3487 16.8279 85.9661 17.0556 86.73 17.0556C87.4939 17.0556 88.1157 16.8232 88.5954 16.3582C89.0751 15.8933 89.3149 15.2813 89.3149 14.5223C89.3149 13.7822 89.0795 13.1797 88.6087 12.7148C88.1379 12.2499 87.5028 12.0175 86.7034 12.0175C85.9572 12.0175 85.3487 12.2452 84.8779 12.7006C84.4071 13.156 84.1717 13.7727 84.1717 14.5508C84.1717 15.3098 84.4071 15.917 84.8779 16.3725Z" fill="#00324E"/>
<path d="M52.9221 28.7908C53.4186 28.7908 53.821 28.3891 53.821 27.8936V9.24227H45.979C45.4826 9.24227 45.0802 9.64398 45.0802 10.1395V12.7001C45.0802 13.1956 45.4826 13.5973 45.979 13.5973H48.5445V27.8936C48.5445 28.3891 48.947 28.7908 49.4434 28.7908H52.9221Z" fill="#00324E"/>
<path fill-rule="evenodd" clip-rule="evenodd" d="M105.06 28.722C107.032 28.722 108.769 28.295 110.27 27.4411C111.771 26.5871 112.935 25.3395 113.761 23.698C114.587 22.0566 115 20.0973 115 17.8202C115 14.6511 114.227 12.2222 112.682 10.5333C111.136 8.84444 109.022 8 106.339 8C104.989 8 103.759 8.2799 102.648 8.83969C101.538 9.39949 100.658 10.1965 100.01 11.2307C99.3616 12.2649 99.0374 13.4556 99.0374 14.8029C99.0374 16.0364 99.3261 17.1323 99.9034 18.0906C100.481 19.0489 101.258 19.7889 102.235 20.3108C103.212 20.8326 104.287 21.0935 105.46 21.0935C107.183 21.0935 108.578 20.6097 109.644 19.6419C109.501 21.141 109.017 22.2843 108.191 23.0718C107.365 23.8593 106.286 24.2531 104.953 24.2531C103.904 24.2531 102.992 24.0571 102.217 23.6652C101.836 23.4724 101.344 23.59 101.161 23.9754L99.9275 26.5741C99.7374 26.9745 99.8665 27.4588 100.261 27.6625C100.789 27.9353 101.385 28.1604 102.049 28.3377C103.008 28.5939 104.012 28.722 105.06 28.722ZM106.711 17.0523C105.947 17.0523 105.33 16.8246 104.859 16.3692C104.388 15.9138 104.153 15.3065 104.153 14.5475C104.153 13.7695 104.388 13.1527 104.859 12.6973C105.33 12.2419 105.938 12.0142 106.685 12.0142C107.484 12.0142 108.119 12.2466 108.59 12.7115C109.061 13.1764 109.296 13.7789 109.296 14.519C109.296 15.2781 109.056 15.89 108.577 16.355C108.097 16.8199 107.475 17.0523 106.711 17.0523Z" fill="#00324E"/>
<path d="M66.7008 28.603C66.9631 28.603 67.2015 28.4512 67.3121 28.2138L74.7703 12.2076V9.35093C74.7703 8.97928 74.4685 8.678 74.0961 8.678H70.6283L61.8186 27.647C61.6115 28.093 61.9377 28.603 62.4302 28.603H66.7008Z" fill="#00324E"/>
<path d="M61.8749 8.52295H68.4447C68.7788 8.52295 68.9961 8.87403 68.8466 9.17232L65.8959 15.0587H59.3346C59.0007 15.0587 58.7834 14.7081 58.9325 14.4098L61.8749 8.52295Z" fill="url(#paint1_linear)"/>
<defs>
<linearGradient id="paint0_linear" x1="35.6725" y1="0" x2="-5.01188" y2="38.4898" gradientUnits="userSpaceOnUse">
<stop stop-color="#0095E9"/>
<stop offset="0.449222" stop-color="#00E0FF"/>
<stop offset="1" stop-color="#00FF94"/>
</linearGradient>
<linearGradient id="paint1_linear" x1="69.1722" y1="8.52295" x2="62.4201" y2="18.9426" gradientUnits="userSpaceOnUse">
<stop stop-color="#0095E9"/>
<stop offset="0.449222" stop-color="#00E0FF"/>
<stop offset="1" stop-color="#00FF94"/>
</linearGradient>
</defs>
</svg>
