<svg width="20" height="18" viewBox="0 0 20 18" fill="none" xmlns="http://www.w3.org/2000/svg">
<path fill-rule="evenodd" clip-rule="evenodd" d="M13.9707 0.38501C13.22 0.38501 12.4768 0.532904 11.7833 0.820242C11.1204 1.09491 10.5153 1.49197 9.99977 1.99016C8.93515 0.961683 7.51172 0.385439 6.02888 0.385439C4.51308 0.385439 3.05936 0.98759 1.98752 2.05942C0.915688 3.13126 0.313538 4.58498 0.313538 6.10078C0.313538 7.61659 0.915688 9.07031 1.98752 10.1421L9.07898 17.2336C9.58753 17.7421 10.412 17.7421 10.9206 17.2336L18.012 10.1422C18.5428 9.61158 18.9639 8.98158 19.2512 8.28818C19.5386 7.59471 19.6865 6.85142 19.6865 6.10078C19.6865 5.35014 19.5386 4.60686 19.2512 3.91339C18.9639 3.22007 18.5427 2.5899 18.012 2.05935C17.4814 1.52858 16.8514 1.10753 16.1581 0.820242C15.4646 0.532904 14.7213 0.38501 13.9707 0.38501ZM12.7802 3.22628C13.1576 3.0699 13.5622 2.98941 13.9707 2.98941C14.3792 2.98941 14.7837 3.0699 15.1611 3.22628C15.5385 3.38264 15.8818 3.61226 16.1707 3.90123C16.4596 4.19003 16.6888 4.53293 16.8452 4.91034C17.0016 5.28774 17.082 5.69226 17.082 6.10078C17.082 6.5093 17.0016 6.91382 16.8452 7.29123C16.6888 7.66861 16.4594 8.01173 16.1704 8.30055L9.99978 14.4712L3.82911 8.30055C3.2457 7.71713 2.91794 6.92585 2.91794 6.10078C2.91794 5.27571 3.2457 4.48443 3.82911 3.90101C4.41253 3.3176 5.20381 2.98984 6.02888 2.98984C6.85395 2.98984 7.64523 3.3176 8.22865 3.90101L9.07898 4.75135C9.58752 5.25989 10.412 5.25989 10.9206 4.75135L11.7711 3.9008C12.0599 3.61186 12.4028 3.38266 12.7802 3.22628Z" fill="url(#paint0_linear)"/>
<defs>
<linearGradient id="paint0_linear" x1="0.313538" y1="9.00001" x2="19.6865" y2="9.00001" gradientUnits="userSpaceOnUse">
<stop stop-color="#00D2FF"/>
<stop offset="1" stop-color="#3A7BD5"/>
</linearGradient>
</defs>
</svg>
