<svg width="16" height="16" viewBox="0 0 16 16" fill="none" xmlns="http://www.w3.org/2000/svg">
<path d="M13.3641 5.81261L15.3618 3.8149C15.4224 3.75157 15.4699 3.67689 15.5016 3.59515C15.5682 3.43303 15.5682 3.25119 15.5016 3.08907C15.4699 3.00733 15.4224 2.93265 15.3618 2.86932L13.3641 0.871618C13.2387 0.746226 13.0686 0.675781 12.8913 0.675781C12.714 0.675781 12.5439 0.746226 12.4185 0.871618C12.2931 0.997009 12.2227 1.16708 12.2227 1.34441C12.2227 1.52174 12.2931 1.69181 12.4185 1.8172L13.2842 2.67621L9.78074 2.67623C9.60413 2.67623 9.43475 2.74638 9.30987 2.87126C9.18499 2.99615 9.11483 3.16552 9.11483 3.34213C9.11483 3.51874 9.18499 3.68811 9.30987 3.81299C9.43475 3.93787 9.60413 4.00803 9.78074 4.00803L13.2842 4.00801L12.4185 4.86703C12.3561 4.92893 12.3066 5.00258 12.2727 5.08373C12.2389 5.16487 12.2215 5.25191 12.2215 5.33982C12.2215 5.42772 12.2389 5.51476 12.2727 5.59591C12.3066 5.67705 12.3561 5.7507 12.4185 5.81261C12.4804 5.87502 12.5541 5.92456 12.6352 5.95837C12.7164 5.99218 12.8034 6.00958 12.8913 6.00958C12.9792 6.00958 13.0662 5.99218 13.1474 5.95837C13.2285 5.92456 13.3022 5.87502 13.3641 5.81261Z" fill="#8C8C8C"/>
<path d="M14.6015 7.55278C14.4249 7.55278 14.2555 7.62294 14.1307 7.74782C14.0058 7.8727 13.9356 8.04207 13.9356 8.21868L13.9356 13.3267C13.9356 13.5033 13.8655 13.6727 13.7406 13.7976C13.6157 13.9225 13.4463 13.9926 13.2697 13.9926H2.94595C2.76934 13.9926 2.59996 13.9225 2.47508 13.7976C2.3502 13.6727 2.28005 13.5033 2.28005 13.3267L2.28005 4.94585L6.89158 9.56403C7.26615 9.93814 7.77389 10.1483 8.30329 10.1483C8.83268 10.1483 9.34043 9.93814 9.715 9.56403L11.3154 7.96359C11.4408 7.8382 11.5113 7.66813 11.5113 7.4908C11.5113 7.31347 11.4408 7.1434 11.3154 7.01801C11.19 6.89262 11.02 6.82217 10.8427 6.82217C10.6653 6.82217 10.4953 6.89262 10.3699 7.01801L8.76942 8.61845C8.64494 8.74046 8.47759 8.8088 8.30329 8.8088C8.12899 8.8088 7.96163 8.74046 7.83716 8.61845L3.21898 4.00693H6.30461C6.48121 4.00693 6.65059 3.93677 6.77547 3.81189C6.90035 3.68701 6.97051 3.51764 6.97051 3.34103C6.97051 3.16442 6.90035 2.99504 6.77547 2.87016C6.65059 2.74528 6.48121 2.67513 6.30461 2.67513H2.94596C2.41613 2.67513 1.90801 2.8856 1.53337 3.26024C1.15872 3.63488 0.948252 4.14301 0.948252 4.67283L0.948242 13.3267C0.948242 13.8565 1.15871 14.3647 1.53336 14.7393C1.908 15.1139 2.41612 15.3244 2.94595 15.3244H13.2697C13.7995 15.3244 14.3077 15.1139 14.6823 14.7393C15.057 14.3647 15.2674 13.8565 15.2674 13.3267L15.2674 8.21868C15.2674 8.04207 15.1973 7.8727 15.0724 7.74782C14.9475 7.62294 14.7781 7.55278 14.6015 7.55278Z" fill="#8C8C8C"/>
</svg>
