<svg width="20" height="21" viewBox="0 0 20 21" fill="none" xmlns="http://www.w3.org/2000/svg">
<path fill-rule="evenodd" clip-rule="evenodd" d="M0.266267 0.848481C0.502756 0.611992 0.837122 0.533034 1.13897 0.611607L14.3042 3.78943C14.6483 3.87249 14.9129 4.14774 14.9824 4.49485L16.0306 9.73607C16.357 9.6078 16.7426 9.67557 17.0065 9.93939L19.7337 12.6667C20.0888 13.0217 20.0888 13.5973 19.7337 13.9523L13.3701 20.3159C13.0151 20.671 12.4395 20.671 12.0844 20.3159L9.35718 17.5887C9.09336 17.3249 9.02558 16.9392 9.15386 16.6128L3.91264 15.5646C3.56553 15.4952 3.29028 15.2306 3.20722 14.8865L0.0293931 1.72118C-0.0491803 1.41934 0.0297775 1.08497 0.266267 0.848481ZM6.62943 8.49729L2.55094 4.41881L4.83843 13.8955L10.6103 15.0499L14.4677 11.1925L13.3133 5.42065L3.83659 3.13316L7.91508 7.21164C8.27111 7.04126 8.66987 6.94585 9.09091 6.94585C10.5971 6.94585 11.8182 8.16689 11.8182 9.67312C11.8182 11.1794 10.5971 12.4004 9.09091 12.4004C7.58468 12.4004 6.36364 11.1794 6.36364 9.67312C6.36364 9.25208 6.45905 8.85332 6.62943 8.49729ZM8.43692 9.04166C8.27898 9.2052 8.18182 9.42782 8.18182 9.67312C8.18182 10.1752 8.58883 10.5822 9.09091 10.5822C9.59299 10.5822 10 10.1752 10 9.67312C10 9.17105 9.59299 8.76403 9.09091 8.76403C8.8456 8.76403 8.62299 8.86119 8.45945 9.01913C8.45576 9.02294 8.45204 9.02673 8.44828 9.03049C8.44452 9.03426 8.44073 9.03798 8.43692 9.04166ZM11.547 16.6845L11.5519 16.6796L16.0974 12.1341L16.1023 12.1292L16.3636 11.8679L17.8053 13.3095L12.7273 18.3875L11.2856 16.9459L11.547 16.6845Z" fill="#595959"/>
</svg>
