<svg width="16" height="18" viewBox="0 0 16 18" fill="none" xmlns="http://www.w3.org/2000/svg">
<path fill-rule="evenodd" clip-rule="evenodd" d="M11.9649 1.22277C11.9649 0.840046 11.6547 0.529785 11.2719 0.529785C10.8892 0.529785 10.579 0.840046 10.579 1.22277V1.91576H5.42103V1.22277C5.42103 0.840046 5.11077 0.529785 4.72805 0.529785C4.34532 0.529785 4.03506 0.840046 4.03506 1.22277V1.91576H2.64909C1.50091 1.91576 0.570129 2.84654 0.570129 3.99472L0.570129 15.3913C0.570129 16.5395 1.50091 17.4703 2.64909 17.4703H13.3509C14.4991 17.4703 15.4299 16.5395 15.4299 15.3913V3.99472C15.4299 2.84654 14.4991 1.91576 13.3509 1.91576H11.9649V1.22277ZM14.0439 6.07368V3.99472C14.0439 3.61199 13.7336 3.30173 13.3509 3.30173H11.9649V3.99472C11.9649 4.37744 11.6547 4.6877 11.2719 4.6877C10.8892 4.6877 10.579 4.37744 10.579 3.99472V3.30173H5.42103V3.99472C5.42103 4.37744 5.11077 4.6877 4.72805 4.6877C4.34532 4.6877 4.03506 4.37744 4.03506 3.99472V3.30173H2.64909C2.26636 3.30173 1.9561 3.61199 1.9561 3.99472V6.07368H14.0439ZM1.9561 7.45965H14.0439V15.3913C14.0439 15.774 13.7336 16.0843 13.3509 16.0843H2.64909C2.26636 16.0843 1.9561 15.774 1.9561 15.3913V7.45965Z" fill="#595959"/>
</svg>
