<svg width="18" height="23" viewBox="0 0 18 23" fill="none" xmlns="http://www.w3.org/2000/svg">
<path fill-rule="evenodd" clip-rule="evenodd" d="M18 1.58221C18 1.02993 17.5523 0.582214 17 0.582214H3.5C2.57174 0.582214 1.6815 0.950963 1.02513 1.60734C0.368749 2.26372 0 3.15396 0 4.08221V19.0822C0 20.0105 0.368749 20.9007 1.02513 21.5571C1.6815 22.2135 2.57174 22.5822 3.5 22.5822H17C17.5523 22.5822 18 22.1345 18 21.5822V1.58221ZM2.43934 3.02155C2.72064 2.74025 3.10218 2.58221 3.5 2.58221H16V15.5822H3.5C2.97616 15.5822 2.46443 15.6996 2 15.9199V4.08221C2 3.68439 2.15804 3.30286 2.43934 3.02155ZM2 19.0822C2 19.48 2.15804 19.8616 2.43934 20.1429C2.72064 20.4242 3.10218 20.5822 3.5 20.5822H16V17.5822H3.5C3.10218 17.5822 2.72064 17.7402 2.43934 18.0216C2.15804 18.3029 2 18.6844 2 19.0822Z" fill="#595959"/>
</svg>
