<svg width="16" height="15" viewBox="0 0 16 15" fill="none" xmlns="http://www.w3.org/2000/svg">
<path fill-rule="evenodd" clip-rule="evenodd" d="M11.7718 2.4821C11.6081 2.4821 11.4461 2.51433 11.2949 2.57696C11.1437 2.63958 11.0063 2.73137 10.8906 2.84709L4.09368 9.64399L3.43281 12.0672L5.85598 11.4063L12.6529 4.60939C12.7686 4.49367 12.8604 4.3563 12.923 4.20511C12.9857 4.05393 13.0179 3.89189 13.0179 3.72824C13.0179 3.56459 12.9857 3.40255 12.923 3.25136C12.8604 3.10018 12.7686 2.9628 12.6529 2.84709C12.5372 2.73137 12.3998 2.63958 12.2486 2.57696C12.0975 2.51433 11.9354 2.4821 11.7718 2.4821ZM10.4837 0.618521C10.8921 0.449367 11.3297 0.362305 11.7718 0.362305C12.2138 0.362305 12.6515 0.449367 13.0599 0.618521C13.4682 0.787675 13.8393 1.03561 14.1518 1.34816C14.4644 1.66072 14.7123 2.03178 14.8815 2.44015C15.0506 2.84853 15.1377 3.28622 15.1377 3.72824C15.1377 4.17026 15.0506 4.60795 14.8815 5.01632C14.7123 5.4247 14.4644 5.79576 14.1518 6.10831L7.15587 13.1042C7.02545 13.2347 6.86324 13.3288 6.68529 13.3773L2.20111 14.6003C1.83416 14.7004 1.44172 14.5962 1.17277 14.3272C0.903817 14.0583 0.799599 13.6658 0.899676 13.2989L2.12264 8.81468C2.17117 8.63673 2.2653 8.47453 2.39573 8.3441L9.39169 1.34816C9.70425 1.03561 10.0753 0.787675 10.4837 0.618521Z" fill="#595959"/>
</svg>
