<svg width="16" height="15" viewBox="0 0 16 15" fill="none" xmlns="http://www.w3.org/2000/svg">
<path fill-rule="evenodd" clip-rule="evenodd" d="M9.40419 1.05213C9.95092 0.825585 10.5369 0.708984 11.1287 0.708984C11.7206 0.708984 12.3066 0.825586 12.8533 1.05213C13.3999 1.27861 13.8965 1.61053 14.3148 2.02894C14.7334 2.44732 15.0654 2.94406 15.292 3.4908C15.5185 4.03753 15.6351 4.62355 15.6351 5.21536C15.6351 5.80717 15.5185 6.39318 15.292 6.93992C15.0654 7.48666 14.7334 7.9834 14.3148 8.40178L8.72708 13.9895C8.53418 14.1824 8.27256 14.2908 7.99977 14.2908C7.72697 14.2908 7.46535 14.1824 7.27246 13.9895L1.68453 8.40161C0.839488 7.55656 0.364746 6.41043 0.364746 5.21536C0.364746 4.02028 0.839488 2.87416 1.68453 2.02911C2.52958 1.18406 3.67571 0.709322 4.87078 0.709322C6.03907 0.709322 7.16058 1.16302 7.99976 1.97285C8.40588 1.5808 8.88226 1.26839 9.40419 1.05213ZM12.8602 3.48356C12.6329 3.25611 12.3629 3.07569 12.0659 2.95259C11.7688 2.82949 11.4503 2.76613 11.1287 2.76613C10.8072 2.76613 10.4887 2.82949 10.1916 2.95259C9.89456 3.07569 9.62463 3.25611 9.39729 3.48356L8.72708 4.15377C8.32539 4.55546 7.67414 4.55546 7.27246 4.15377L6.60241 3.48373C6.14315 3.02447 5.52027 2.76647 4.87078 2.76647C4.2213 2.76647 3.59841 3.02447 3.13915 3.48373C2.6799 3.94299 2.42189 4.56587 2.42189 5.21536C2.42189 5.86485 2.6799 6.48773 3.13915 6.94699L7.99976 11.8076L12.8604 6.94699C13.0878 6.71965 13.2684 6.44955 13.3915 6.15246C13.5146 5.85537 13.578 5.53694 13.578 5.21536C13.578 4.89378 13.5146 4.57535 13.3915 4.27825C13.2684 3.98116 13.0877 3.7109 12.8602 3.48356Z" fill="#595959"/>
</svg>
