<svg width="16" height="14" viewBox="0 0 16 14" fill="none" xmlns="http://www.w3.org/2000/svg">
<path fill-rule="evenodd" clip-rule="evenodd" d="M9.62831 0.552126C10.175 0.325585 10.7611 0.208984 11.3529 0.208984C11.9447 0.208984 12.5307 0.325586 13.0774 0.552126C13.624 0.778605 14.1206 1.11053 14.5389 1.52894C14.9575 1.94732 15.2896 2.44406 15.5161 2.9908C15.7426 3.53753 15.8592 4.12355 15.8592 4.71536C15.8592 5.30717 15.7426 5.89318 15.5161 6.43992C15.2896 6.98666 14.9575 7.4834 14.5389 7.90178L8.9512 13.4895C8.7583 13.6824 8.49668 13.7908 8.22389 13.7908C7.95109 13.7908 7.68947 13.6824 7.49658 13.4895L1.90865 7.90161C1.06361 7.05656 0.588867 5.91043 0.588867 4.71536C0.588867 3.52028 1.06361 2.37416 1.90865 1.52911C2.7537 0.684064 3.89983 0.209322 5.0949 0.209322C6.26319 0.209322 7.3847 0.663021 8.22388 1.47285C8.63 1.0808 9.10638 0.768389 9.62831 0.552126Z" fill="#595959"/>
</svg>
