<svg width="16" height="13" viewBox="0 0 16 13" fill="none" xmlns="http://www.w3.org/2000/svg">
<path d="M3.36315 0.214355C3.94458 0.214355 4.41592 0.667241 4.41592 1.2259V5.12435C4.41592 5.68301 3.94458 6.1359 3.36315 6.1359C2.78172 6.1359 2.31037 5.68301 2.31037 5.12435V1.2259C2.31037 0.667241 2.78172 0.214355 3.36315 0.214355Z" fill="#595959"/>
<path d="M4.41592 8.78505H5.10202C5.68345 8.78505 6.15479 8.33216 6.15479 7.7735C6.15479 7.21484 5.68345 6.76195 5.10202 6.76195H1.62431C1.04288 6.76195 0.571533 7.21484 0.571533 7.7735C0.571533 8.33216 1.04288 8.78505 1.62431 8.78505H2.31037V11.6719C2.31037 12.2306 2.78172 12.6835 3.36315 12.6835C3.94458 12.6835 4.41592 12.2306 4.41592 11.6719V8.78505Z" fill="#595959"/>
<path d="M9.05288 6.76195C9.05288 6.20329 8.58154 5.7504 8.00011 5.7504C7.41868 5.7504 6.94733 6.20329 6.94733 6.76195V11.7742C6.94733 12.3329 7.41868 12.7858 8.00011 12.7858C8.58154 12.7858 9.05288 12.3329 9.05288 11.7742V6.76195Z" fill="#595959"/>
<path d="M8.00011 0.214355C8.58154 0.214355 9.05288 0.667241 9.05288 1.2259V2.99896H9.73894C10.3204 2.99896 10.7917 3.45184 10.7917 4.01051C10.7917 4.56917 10.3204 5.02205 9.73894 5.02205L8.00011 5.02206L6.26124 5.02205C5.6798 5.02205 5.20846 4.56917 5.20846 4.01051C5.20846 3.45184 5.6798 2.99896 6.26124 2.99896H6.94733V1.2259C6.94733 0.667241 7.41868 0.214355 8.00011 0.214355Z" fill="#595959"/>
<path d="M14.3759 7.8758C14.9573 7.8758 15.4287 8.32869 15.4287 8.88735C15.4287 9.44602 14.9573 9.8989 14.3759 9.8989H13.6898V11.672C13.6898 12.2306 13.2185 12.6835 12.6371 12.6835C12.0556 12.6835 11.5843 12.2306 11.5843 11.672V9.8989H10.8982C10.3168 9.8989 9.84542 9.44602 9.84542 8.88735C9.84542 8.32869 10.3168 7.8758 10.8982 7.8758H14.3759Z" fill="#595959"/>
<path d="M12.6371 0.214355C13.2185 0.214355 13.6898 0.667241 13.6898 1.2259V6.23819C13.6898 6.79685 13.2185 7.24974 12.6371 7.24974C12.0556 7.24974 11.5843 6.79685 11.5843 6.23819V1.2259C11.5843 0.667241 12.0556 0.214355 12.6371 0.214355Z" fill="#595959"/>
</svg>
