<svg width="16" height="18" viewBox="0 0 16 18" fill="none" xmlns="http://www.w3.org/2000/svg">
<path fill-rule="evenodd" clip-rule="evenodd" d="M14.8171 0.632512C14.9476 0.636745 15.0743 0.677111 15.1832 0.749115H15.1846C15.2936 0.821419 15.3804 0.922627 15.4352 1.04142C15.49 1.16021 15.5106 1.29191 15.4949 1.42177C15.4946 1.42378 15.4941 1.42726 15.4935 1.43218C15.4742 1.57947 15.2865 3.01328 14.7898 4.55801C14.0508 6.84956 13.0129 8.20897 11.7057 8.59818C11.0067 8.80554 10.2574 8.83722 9.50869 8.86888C8.82721 8.8977 8.14613 8.9265 7.50366 9.08773C6.53909 9.32746 5.76743 10.6627 5.34578 11.3988L7.50366 16.3834C7.54023 16.4686 7.55967 16.5602 7.56086 16.6529C7.56205 16.7456 7.54497 16.8376 7.5106 16.9237C7.47622 17.0098 7.42523 17.0883 7.36052 17.1547C7.29582 17.2211 7.21867 17.2741 7.13348 17.3106C7.0483 17.3472 6.95674 17.3666 6.86404 17.3678C6.77134 17.369 6.67932 17.3519 6.59322 17.3176C6.41934 17.2481 6.28015 17.1125 6.20629 16.9405L3.95535 11.7372L3.91304 11.6526L0.556813 3.82613C0.505794 3.70685 0.488672 3.57581 0.507332 3.44742C0.525993 3.31904 0.579711 3.19829 0.662576 3.09848C0.703471 3.04912 1.08704 2.60209 1.89648 2.1734C2.94002 1.6192 3.66071 1.26772 5.09345 1.26772C5.80982 1.26772 7.15252 1.77855 7.82236 2.13391C8.53309 2.51043 9.15327 2.82631 9.84849 2.75157C10.7975 2.64863 13.1709 1.45421 14.4443 0.725142C14.5576 0.660347 14.6867 0.628279 14.8171 0.632512ZM11.3038 7.24723C12.1118 7.00749 12.8719 5.90473 13.4416 4.14483C13.6108 3.62024 13.7434 3.10271 13.8421 2.65568C13.6827 2.73787 13.5229 2.82229 13.3622 2.90724C12.3369 3.44902 11.2712 4.01214 10.0008 4.15329C9.88656 4.16598 9.77375 4.17162 9.66376 4.17162C8.67945 4.17162 7.93235 3.78805 7.16098 3.3791C7.11249 3.35347 7.0628 3.3268 7.01192 3.2995C6.49455 3.02185 5.85363 2.6779 5.09345 2.6779C3.88563 2.6779 3.37451 2.96608 2.9088 3.22865C2.81663 3.28062 2.72625 3.33158 2.6326 3.3791C2.38723 3.50461 2.19544 3.6287 2.05442 3.73447L4.67454 9.83773C4.7289 9.7617 4.78437 9.68649 4.84094 9.6121C5.63769 8.5601 6.30641 7.93279 7.16098 7.71985C7.79586 7.56096 8.47493 7.53365 9.15253 7.5064C9.89106 7.4767 10.6278 7.44707 11.3038 7.24723Z" fill="#595959"/>
</svg>
