<svg width="16" height="16" viewBox="0 0 16 16" fill="none" xmlns="http://www.w3.org/2000/svg">
<path fill-rule="evenodd" clip-rule="evenodd" d="M6.18278 0.339233C4.38784 0.339233 2.93274 1.79433 2.93274 3.58927C2.93274 5.38422 4.38784 6.83931 6.18278 6.83931C7.97773 6.83931 9.43282 5.38422 9.43282 3.58927C9.43282 1.79433 7.97773 0.339233 6.18278 0.339233ZM4.23276 3.58927C4.23276 2.5123 5.10581 1.63925 6.18278 1.63925C7.25975 1.63925 8.13281 2.5123 8.13281 3.58927C8.13281 4.66624 7.25975 5.5393 6.18278 5.5393C5.10581 5.5393 4.23276 4.66624 4.23276 3.58927Z" fill="#595959"/>
<path d="M3.58241 8.13914C2.72044 8.13914 1.89378 8.48155 1.28428 9.09105C0.674781 9.70055 0.332367 10.5272 0.332367 11.3892L0.332367 15.3389C0.332367 15.6978 0.623385 15.9889 0.982375 15.9889C1.34136 15.9889 1.63238 15.6978 1.63238 15.3389V11.3892C1.63238 10.872 1.83783 10.376 2.20353 10.0103C2.56923 9.6446 3.06523 9.43915 3.58241 9.43915H8.78247C9.29965 9.43915 9.79565 9.6446 10.1613 10.0103C10.527 10.376 10.7325 10.872 10.7325 11.3892V15.3389C10.7325 15.6978 11.0235 15.9889 11.3825 15.9889C11.7415 15.9889 12.0325 15.6978 12.0325 15.3389V11.3892C12.0325 10.5272 11.6901 9.70055 11.0806 9.09105C10.4711 8.48155 9.64444 8.13914 8.78247 8.13914H3.58241Z" fill="#595959"/>
<path d="M12.7034 8.71152C12.7932 8.36393 13.1477 8.1549 13.4953 8.24465C14.1925 8.42468 14.8102 8.83117 15.2514 9.4003C15.6926 9.96943 15.9323 10.669 15.9328 11.3891L15.9328 15.3392C15.9328 15.6982 15.6418 15.9892 15.2828 15.9892C14.9238 15.9892 14.6328 15.6982 14.6328 15.3392V11.39C14.6324 10.958 14.4886 10.5382 14.224 10.1968C13.9593 9.8553 13.5886 9.6114 13.1703 9.50339C12.8227 9.41364 12.6137 9.05911 12.7034 8.71152Z" fill="#595959"/>
<path d="M10.8936 0.443688C10.5459 0.354645 10.1918 0.564385 10.1027 0.912156C10.0137 1.25993 10.2234 1.61403 10.5712 1.70308C10.9906 1.81048 11.3624 2.05442 11.6279 2.39646C11.8934 2.7385 12.0375 3.15918 12.0375 3.59216C12.0375 4.02515 11.8934 4.44583 11.6279 4.78786C11.3624 5.1299 10.9906 5.37385 10.5712 5.48125C10.2234 5.57029 10.0137 5.9244 10.1027 6.27217C10.1918 6.61994 10.5459 6.82968 10.8936 6.74064C11.5927 6.56164 12.2124 6.15506 12.6549 5.585C13.0974 5.01493 13.3375 4.31381 13.3375 3.59216C13.3375 2.87052 13.0974 2.16939 12.6549 1.59933C12.2124 1.02926 11.5927 0.622685 10.8936 0.443688Z" fill="#595959"/>
</svg>
