<svg width="14" height="14" viewBox="0 0 14 14" fill="none" xmlns="http://www.w3.org/2000/svg">
<path d="M5.60525 0.0125722C5.26251 -0.0353303 4.91478 0.0548139 4.63848 0.263192C4.36217 0.47157 4.17991 0.78113 4.13175 1.12384L3.857 3.06286H1.3125C0.964403 3.06286 0.630564 3.20114 0.384422 3.44728C0.138281 3.69343 0 4.02727 0 4.37537V4.39637C0 5.12088 0.588 5.70889 1.3125 5.70889L3.48425 5.70714L3.1185 8.31117L1.3125 8.31292C0.964403 8.31292 0.630564 8.4512 0.384422 8.69734C0.138281 8.94349 0 9.27733 0 9.62543C0 9.97353 0.138281 10.3074 0.384422 10.5535C0.630564 10.7997 0.964403 10.9379 1.3125 10.9379L2.74925 10.9362L2.5305 12.506C2.48246 12.8485 2.57246 13.1961 2.7807 13.4723C2.98893 13.7484 3.29835 13.9306 3.64087 13.9786C3.9834 14.0266 4.33098 13.9366 4.60715 13.7284C4.88332 13.5202 5.06546 13.2107 5.1135 12.8682L5.383 10.9362H7.77525L7.55475 12.5147C7.50671 12.8572 7.59671 13.2048 7.80495 13.481C8.01318 13.7572 8.3226 13.9393 8.66512 13.9874C9.00765 14.0354 9.35523 13.9454 9.6314 13.7372C9.90757 13.5289 10.0897 13.2195 10.1377 12.877L10.409 10.9362L12.6875 10.9379C13.0356 10.9379 13.3694 10.7997 13.6156 10.5535C13.8617 10.3074 14 9.97353 14 9.62543C14 9.27733 13.8617 8.94349 13.6156 8.69734C13.3694 8.4512 13.0356 8.31292 12.6875 8.31292L10.7783 8.31117L11.144 5.70714H12.6875C13.0356 5.70714 13.3694 5.56885 13.6156 5.32271C13.8617 5.07656 14 4.74272 14 4.39462V4.37537C14 4.02727 13.8617 3.69343 13.6156 3.44728C13.3694 3.20114 13.0356 3.06286 12.6875 3.06286H11.5168L11.739 1.49484L11.7513 1.31984C11.7536 0.988722 11.6298 0.669123 11.4051 0.425912C11.1804 0.1827 10.8716 0.0341 10.5414 0.010271C10.2111 -0.013558 9.88414 0.0891704 9.62685 0.297605C9.36956 0.50604 9.20123 0.804564 9.156 1.13258L8.883 3.06286H6.49075L6.71475 1.48609L6.727 1.30934C6.72797 0.994397 6.61491 0.689751 6.40871 0.4517C6.2025 0.213649 5.9171 0.0582856 5.60525 0.0143221V0.0125722ZM8.51025 5.70714L8.1445 8.31117H5.75225L6.11975 5.70714H8.51025Z" fill="#595959"/>
</svg>
