<svg width="18" height="18" viewBox="0 0 18 18" fill="none" xmlns="http://www.w3.org/2000/svg">
<path d="M9.00001 14.8C5.80001 14.8 3.20001 12.2 3.20001 9.00001C3.20001 5.80001 5.80001 3.20001 9.00001 3.20001C12.2 3.20001 14.8 5.80001 14.8 9.00001C14.8 12.2 12.2 14.8 9.00001 14.8ZM9.00001 4.50001C6.50001 4.50001 4.50001 6.50001 4.50001 9.00001C4.50001 11.5 6.50001 13.5 9.00001 13.5C11.5 13.5 13.5 11.5 13.5 9.00001C13.5 6.50001 11.5 4.50001 9.00001 4.50001Z" fill="#595959"/>
<path d="M10.1 10.8C9.89999 10.8 9.79999 10.7 9.59999 10.6L8.49999 9.50001C8.39999 9.30001 8.39999 9.20001 8.39999 9.00001V6.80001C8.39999 6.40001 8.69999 6.20001 8.99999 6.20001C9.29999 6.20001 9.59999 6.50001 9.59999 6.80001V8.80001L10.5 9.70001C10.8 10 10.8 10.4 10.5 10.6C10.4 10.7 10.3 10.8 10.1 10.8Z" fill="#595959"/>
<path d="M7.4 17.8C6.9 17.8 6.4 17.6 6 17.2C5.6 16.8 5.4 16.3 5.3 15.8L5 13C5 12.6 5.2 12.3 5.6 12.3C6 12.3 6.3 12.5 6.3 12.9C6.3 12.9 6.48828 14.6211 6.6 15.7C6.62345 15.9265 6.66047 16.1166 6.83594 16.2617C7.02626 16.4191 7.25301 16.4 7.5 16.4C8.74219 16.4 9.46094 16.4 10.7 16.4C10.9445 16.4 11.1261 16.3996 11.3164 16.2422C11.4919 16.097 11.5625 15.9492 11.6 15.7C11.7614 14.6277 11.9 12.9 11.9 12.9C11.9 12.5 12.3 12.3 12.6 12.3C13 12.3 13.2 12.6 13.2 13L12.9 15.8C12.9 16.3 12.6 16.8 12.2 17.2C11.8 17.6 11.3 17.7 10.8 17.8H7.4ZM12.4 5.70001C12.1 5.70001 11.8 5.40001 11.8 5.10001L11.5 2.30001C11.5 2.10001 11.4333 1.89904 11.2578 1.75391C11.1178 1.63809 10.9844 1.60001 10.6 1.60001H7.4C7 1.60001 6.91589 1.60001 6.8 1.70001C6.64078 1.8374 6.625 2.00391 6.6 2.20001C6.575 2.39612 6.3 5.10001 6.3 5.10001C6.3 5.50001 5.9 5.70001 5.6 5.70001C5.3 5.60001 5 5.30001 5 5.00001L5.3 2.20001C5.3 1.70001 5.6 1.20001 6 0.800012C6.4 0.400012 6.9 0.200012 7.4 0.200012H10.6C11.1 0.200012 11.6 0.400012 12 0.800012C12.4 1.20001 12.6 1.70001 12.7 2.20001L13 5.00001C13.1 5.30001 12.8 5.60001 12.4 5.70001Z" fill="#595959"/>
</svg>
