<svg width="14" height="13" viewBox="0 0 14 13" fill="none" xmlns="http://www.w3.org/2000/svg">
<path fill-rule="evenodd" clip-rule="evenodd" d="M0.599609 3.1001C0.599609 1.44324 1.94276 0.100098 3.59961 0.100098H10.3996C12.0565 0.100098 13.3996 1.44325 13.3996 3.1001V9.9001C13.3996 11.557 12.0565 12.9001 10.3996 12.9001H3.59961C1.94276 12.9001 0.599609 11.5569 0.599609 9.90009V3.1001ZM2.4195 10.2802C2.4195 10.722 2.77768 11.0802 3.2195 11.0802H6.08966V5.58003H2.4195V10.2802ZM7.90956 11.0802H10.7797C11.2215 11.0802 11.5797 10.722 11.5797 10.2802V5.58003H7.90956V11.0802ZM2.4195 3.76013H11.5797V2.71999C11.5797 2.27816 11.2215 1.91999 10.7797 1.91999H3.2195C2.77768 1.91999 2.4195 2.27816 2.4195 2.71999V3.76013Z" fill="white"/>
</svg>
