<svg width="23" height="22" viewBox="0 0 23 22" fill="none" xmlns="http://www.w3.org/2000/svg">
<path fill-rule="evenodd" clip-rule="evenodd" d="M7.63642 0.0822144C7.79763 0.0822144 7.9495 0.122175 8.08267 0.192732L15.2426 3.77268L21.4808 0.207982C21.7762 0.0391632 22.1392 0.0403754 22.4335 0.211163C22.7278 0.381951 22.9089 0.696488 22.9089 1.03675V16.3094C22.9089 16.6519 22.7254 16.9682 22.4279 17.1381L15.7642 20.946C15.6205 21.0325 15.4523 21.0822 15.2724 21.0822C15.1084 21.0822 14.9541 21.0409 14.8192 20.968L7.66634 17.3916L1.42812 20.9563C1.13269 21.1251 0.769727 21.1239 0.475429 20.9531C0.181132 20.7823 0 20.4678 0 20.1275V4.8549C0 4.51236 0.183544 4.19608 0.480954 4.02613L7.15144 0.214428C7.29357 0.130422 7.45936 0.0822144 7.63642 0.0822144ZM16.2269 18.4828L20.9998 15.7554V2.68159L16.2269 5.40895V18.4828ZM14.3179 5.44474V18.5829L8.59096 15.7195V2.58129L14.3179 5.44474ZM1.90907 5.40884L6.68188 2.68152V15.7553L1.90907 18.4827V5.40884Z" fill="#595959"/>
</svg>
