<svg width="20" height="23" viewBox="0 0 20 23" fill="none" xmlns="http://www.w3.org/2000/svg">
<path fill-rule="evenodd" clip-rule="evenodd" d="M10.0001 0.583679C8.14356 0.583679 6.36309 1.32118 5.05033 2.63393C3.73758 3.94669 3.00008 5.72716 3.00008 7.58368C3.00008 10.9363 2.28301 13.0183 1.62218 14.2298C1.29039 14.8381 0.967304 15.2372 0.742875 15.4741C0.6304 15.5928 0.542016 15.6715 0.4888 15.7158C0.462178 15.738 0.444325 15.7516 0.436625 15.7574L0.433767 15.7595C0.0752824 16.0057 -0.0833568 16.4562 0.0429858 16.8735C0.170684 17.2952 0.559411 17.5837 1.00008 17.5837H19.0001C19.4407 17.5837 19.8295 17.2952 19.9572 16.8735C20.0835 16.4562 19.9249 16.0057 19.5664 15.7595L19.5635 15.7574C19.5558 15.7516 19.538 15.738 19.5114 15.7158C19.4581 15.6715 19.3698 15.5928 19.2573 15.4741C19.0329 15.2372 18.7098 14.8381 18.378 14.2298C17.7171 13.0183 17.0001 10.9363 17.0001 7.58368C17.0001 5.72716 16.2626 3.94669 14.9498 2.63393C13.6371 1.32118 11.8566 0.583679 10.0001 0.583679ZM16.8508 15.5837H3.1494C3.22549 15.459 3.30188 15.327 3.37797 15.1875C4.21715 13.649 5.00008 11.231 5.00008 7.58368C5.00008 6.2576 5.52686 4.98583 6.46454 4.04815C7.40223 3.11046 8.674 2.58368 10.0001 2.58368C11.3262 2.58368 12.5979 3.11046 13.5356 4.04815C14.4733 4.98583 15.0001 6.2576 15.0001 7.58368C15.0001 11.231 15.783 13.649 16.6222 15.1875C16.6983 15.327 16.7747 15.459 16.8508 15.5837Z" fill="#595959"/>
<path d="M9.13518 20.0821C8.85806 19.6043 8.24614 19.4417 7.76841 19.7188C7.29069 19.996 7.12806 20.6079 7.40518 21.0856C7.6689 21.5402 8.04742 21.9176 8.50284 22.1799C8.95827 22.4422 9.47462 22.5803 10.0002 22.5803C10.5258 22.5803 11.0421 22.4422 11.4975 22.1799C11.9529 21.9176 12.3315 21.5402 12.5952 21.0856C12.8723 20.6079 12.7097 19.996 12.232 19.7188C11.7542 19.4417 11.1423 19.6043 10.8652 20.0821C10.7773 20.2336 10.6511 20.3594 10.4993 20.4468C10.3475 20.5343 10.1754 20.5803 10.0002 20.5803C9.82499 20.5803 9.65288 20.5343 9.50107 20.4468C9.34926 20.3594 9.22309 20.2336 9.13518 20.0821Z" fill="#595959"/>
</svg>
