<svg width="18" height="18" viewBox="0 0 18 18" fill="none" xmlns="http://www.w3.org/2000/svg">
<path fill-rule="evenodd" clip-rule="evenodd" d="M9.00083 1.52098C7.64267 1.52098 6.34014 2.06083 5.37977 3.02176C4.41941 3.98269 3.87988 5.28599 3.87988 6.64495C3.87988 8.62924 5.17019 10.5547 6.58499 12.049C7.2793 12.7823 7.97579 13.3826 8.49941 13.7998C8.69429 13.9551 9.00083 14.1852 9.00083 14.1852C9.00083 14.1852 9.30738 13.9551 9.50225 13.7998C10.0259 13.3826 10.7224 12.7823 11.4167 12.049C12.8315 10.5547 14.1218 8.62924 14.1218 6.64495C14.1218 5.28599 13.5823 3.98269 12.6219 3.02176C11.6615 2.06083 10.359 1.52098 9.00083 1.52098ZM8.64541 15.5041L8.62465 15.4901C8.61218 15.4816 8.59441 15.4694 8.57167 15.4537C8.5262 15.4222 8.46087 15.3763 8.3785 15.3167C8.21383 15.1978 7.98071 15.0241 7.70192 14.8019C7.14534 14.3585 6.40156 13.7178 5.6556 12.93C4.18986 11.3819 2.59964 9.14413 2.59964 6.64495C2.59964 4.94625 3.27405 3.31712 4.47451 2.11596C5.67496 0.914796 7.30313 0.23999 9.00083 0.23999C10.6985 0.23999 12.3267 0.914796 13.5272 2.11596C14.7276 3.31712 15.402 4.94625 15.402 6.64495C15.402 9.14413 13.8118 11.3819 12.3461 12.93C11.6001 13.7178 10.8563 14.3585 10.2997 14.8019C10.021 15.0241 9.78783 15.1978 9.62316 15.3167C9.5408 15.3763 9.47546 15.4222 9.43 15.4537C9.40726 15.4694 9.38948 15.4816 9.37702 15.4901L9.35673 15.5038C9.35673 15.5038 9.14414 15.6497 9.00083 15.6497L8.64541 15.5041ZM8.64541 15.5041C8.64541 15.5041 8.83408 15.6497 9.00083 15.6497L8.64541 15.5041Z" fill="#595959"/>
<path fill-rule="evenodd" clip-rule="evenodd" d="M9.00083 5.36396C8.29378 5.36396 7.72059 5.93748 7.72059 6.64495C7.72059 7.35242 8.29378 7.92594 9.00083 7.92594C9.70789 7.92594 10.2811 7.35242 10.2811 6.64495C10.2811 5.93748 9.70789 5.36396 9.00083 5.36396ZM6.44036 6.64495C6.44036 5.23 7.58672 4.08297 9.00083 4.08297C10.4149 4.08297 11.5613 5.23 11.5613 6.64495C11.5613 8.05989 10.4149 9.20693 9.00083 9.20693C7.58672 9.20693 6.44036 8.05989 6.44036 6.64495Z" fill="#595959"/>
<path fill-rule="evenodd" clip-rule="evenodd" d="M11.4846 15.1866C11.533 14.9031 11.7812 14.7163 12.0392 14.7695C12.7921 14.9247 13.1537 15.0411 13.6223 15.2759C13.851 15.3905 14.1177 15.5664 14.2456 15.8537C14.3194 16.0195 14.341 16.2113 14.2898 16.4028C14.2421 16.581 14.143 16.716 14.0457 16.8133C13.8586 17.0005 13.5898 17.1357 13.309 17.2399C13.016 17.3487 12.6589 17.4417 12.2535 17.5181C11.4422 17.6708 10.1288 17.7548 9.10448 17.7602C8.07986 17.7655 6.77593 17.6919 5.93863 17.5482C5.52005 17.4763 5.14869 17.3877 4.84002 17.2839C4.54036 17.183 4.26409 17.0563 4.06296 16.8896C3.86809 16.7282 3.62551 16.416 3.73142 15.9919C3.8166 15.6508 4.09135 15.4486 4.30063 15.3301C4.30396 15.3282 4.30729 15.3263 4.31062 15.3244C4.71327 15.0963 5.08921 14.8833 5.953 14.7646C6.21339 14.7288 6.45086 14.9319 6.4834 15.2182C6.51594 15.5044 6.33123 15.7655 6.07084 15.8013C5.44148 15.8877 5.16167 16.0201 4.86369 16.1866C4.9333 16.2178 5.01758 16.251 5.11814 16.2849C5.37149 16.3701 5.69638 16.4492 6.08521 16.5159C6.86273 16.6494 8.11494 16.7206 9.09999 16.7154C10.0853 16.7103 11.3449 16.6292 12.093 16.4883C12.4674 16.4178 12.7732 16.3361 13.005 16.2501C13.061 16.2293 13.1103 16.2091 13.1536 16.1898C12.8139 16.0257 12.5253 15.9326 11.864 15.7963C11.6061 15.7432 11.4362 15.4702 11.4846 15.1866Z" fill="#595959"/>
</svg>
