<svg width="16" height="17" viewBox="0 0 16 17" fill="none" xmlns="http://www.w3.org/2000/svg">
<path fill-rule="evenodd" clip-rule="evenodd" d="M3.67773 2.0001C4.97569 1.13283 6.50169 0.669922 8.06274 0.669922C9.09924 0.669922 10.1256 0.874076 11.0832 1.27073C12.0408 1.66738 12.9109 2.24876 13.6438 2.98167C14.3767 3.71459 14.9581 4.58469 15.3548 5.54229C15.7514 6.49989 15.9556 7.52624 15.9556 8.56274C15.9556 10.1238 15.4927 11.6498 14.6254 12.9478C13.7581 14.2457 12.5254 15.2574 11.0832 15.8547C9.64097 16.4521 8.05399 16.6084 6.52293 16.3039C4.99187 15.9994 3.58551 15.2476 2.48168 14.1438C1.37785 13.04 0.62613 11.6336 0.321584 10.1025C0.0170376 8.57149 0.173342 6.98451 0.77073 5.54229C1.36812 4.10006 2.37976 2.86737 3.67773 2.0001ZM4.78331 13.4708C5.75402 14.1194 6.89527 14.4656 8.06274 14.4656C9.62827 14.4656 11.1297 13.8437 12.2367 12.7367C13.3437 11.6297 13.9656 10.1283 13.9656 8.56274C13.9656 7.39527 13.6194 6.25402 12.9708 5.2833C12.3221 4.31259 11.4003 3.55601 10.3217 3.10924C9.24305 2.66247 8.05619 2.54557 6.91116 2.77334C5.76612 3.0011 4.71434 3.56329 3.88881 4.38881C3.06329 5.21434 2.5011 6.26612 2.27334 7.41115C2.04558 8.55619 2.16247 9.74305 2.60924 10.8216C3.05601 11.9002 3.81259 12.8221 4.78331 13.4708ZM9.05776 7.56774H11.1284C11.3923 7.56774 11.6454 7.67257 11.832 7.85917C12.0186 8.04577 12.1234 8.29885 12.1234 8.56274C12.1234 8.82663 12.0186 9.07971 11.832 9.26631C11.6454 9.4529 11.3923 9.55773 11.1284 9.55773H9.05776V11.6284C9.05776 11.8923 8.95293 12.1454 8.76634 12.332C8.57974 12.5186 8.32666 12.6234 8.06277 12.6234C7.79888 12.6234 7.5458 12.5186 7.3592 12.332C7.1726 12.1454 7.06777 11.8923 7.06777 11.6284V9.55773H4.99704C4.73315 9.55773 4.48007 9.4529 4.29348 9.26631C4.10688 9.07971 4.00205 8.82663 4.00205 8.56274C4.00205 8.29885 4.10688 8.04577 4.29348 7.85917C4.48007 7.67257 4.73315 7.56774 4.99704 7.56774H7.06777V5.49702C7.06777 5.23313 7.1726 4.98005 7.3592 4.79345C7.5458 4.60685 7.79888 4.50202 8.06277 4.50202C8.32666 4.50202 8.57974 4.60685 8.76634 4.79345C8.95293 4.98005 9.05776 5.23313 9.05776 5.49702V7.56774Z" fill="#595959"/>
</svg>
