<svg width="26" height="26" viewBox="0 0 26 26" fill="none" xmlns="http://www.w3.org/2000/svg">
<path fill-rule="evenodd" clip-rule="evenodd" d="M14.6496 11.35H23.4996C23.9372 11.35 24.3569 11.5238 24.6663 11.8332C24.9758 12.1427 25.1496 12.5624 25.1496 13C25.1496 13.4376 24.9758 13.8573 24.6663 14.1667C24.3569 14.4761 23.9372 14.65 23.4996 14.65H14.6496V23.5C14.6496 23.9376 14.4758 24.3573 14.1663 24.6667C13.8569 24.9761 13.4372 25.15 12.9996 25.15C12.562 25.15 12.1423 24.9761 11.8329 24.6667C11.5234 24.3573 11.3496 23.9376 11.3496 23.5V14.65H2.49961C2.062 14.65 1.64232 14.4761 1.33288 14.1667C1.02345 13.8573 0.849609 13.4376 0.849609 13C0.849609 12.5624 1.02345 12.1427 1.33288 11.8332C1.64232 11.5238 2.062 11.35 2.49961 11.35H11.3496V2.49998C11.3496 2.06237 11.5234 1.64268 11.8329 1.33325C12.1423 1.02381 12.562 0.849976 12.9996 0.849976C13.4372 0.849976 13.8569 1.02381 14.1663 1.33325C14.4758 1.64268 14.6496 2.06237 14.6496 2.49998V11.35Z" fill="#BFBFBF"/>
</svg>
