<svg width="17" height="18" viewBox="0 0 17 18" fill="none" xmlns="http://www.w3.org/2000/svg">
<path d="M16.2712 15.8498V2.47847C16.27 1.47918 15.4328 0.665385 14.4049 0.664246H2.12525C1.0974 0.665385 0.260358 1.47918 0.259186 2.47866V15.85C0.260358 16.8493 1.0974 17.6631 2.12544 17.6642H14.4051C15.433 17.6631 16.27 16.8491 16.2712 15.8498ZM14.9951 15.85C14.9947 16.166 14.7301 16.4232 14.4053 16.4236H2.12525C1.80027 16.4232 1.53565 16.1658 1.53526 15.85V2.47847C1.53565 2.16253 1.80027 1.90525 2.12505 1.90487H14.4051C14.7301 1.90525 14.9947 2.16253 14.9951 2.47828V15.85Z" fill="#595959"/>
<path d="M10.496 2.89294H6.0343C5.68237 2.89294 5.39626 3.1711 5.39626 3.51325C5.39626 3.8554 5.68257 4.13357 6.0343 4.13357H10.496C10.848 4.13357 11.1341 3.85521 11.1341 3.51325C11.1341 3.1711 10.8478 2.89294 10.496 2.89294Z" fill="#595959"/>
<path fill-rule="evenodd" clip-rule="evenodd" d="M4.69663 11.7436C5.17367 11.2666 5.82066 10.9986 6.49529 10.9986H10.246C10.9206 10.9986 11.5676 11.2666 12.0446 11.7436C12.5217 12.2206 12.7897 12.8676 12.7897 13.5423V14.4799C12.7897 14.8491 12.4904 15.1483 12.1213 15.1483C11.7522 15.1483 11.453 14.8491 11.453 14.4799V13.5423C11.453 13.2222 11.3258 12.9151 11.0994 12.6888C10.8731 12.4624 10.5661 12.3353 10.246 12.3353H6.49529C6.17518 12.3353 5.86818 12.4624 5.64182 12.6888C5.41547 12.9151 5.2883 13.2221 5.2883 13.5423V14.4799C5.2883 14.8491 4.98907 15.1483 4.61995 15.1483C4.25083 15.1483 3.9516 14.8491 3.9516 14.4799V13.5423C3.9516 12.8676 4.2196 12.2206 4.69663 11.7436Z" fill="#595959"/>
<path fill-rule="evenodd" clip-rule="evenodd" d="M8.37028 6.72225C7.70368 6.72225 7.16329 7.26264 7.16329 7.92924C7.16329 8.59584 7.70368 9.13623 8.37028 9.13623C9.03688 9.13623 9.57727 8.59584 9.57727 7.92924C9.57727 7.26264 9.03688 6.72225 8.37028 6.72225ZM5.82659 7.92924C5.82659 6.5244 6.96544 5.38555 8.37028 5.38555C9.77512 5.38555 10.914 6.5244 10.914 7.92924C10.914 9.33408 9.77512 10.4729 8.37028 10.4729C6.96544 10.4729 5.82659 9.33408 5.82659 7.92924Z" fill="#595959"/>
</svg>
