<svg width="15" height="15" viewBox="0 0 15 15" fill="none" xmlns="http://www.w3.org/2000/svg">
<path d="M9.12279 0.0712891C9.5867 0.0712891 9.96277 0.447359 9.96277 0.911266C9.96277 1.33652 9.64676 1.68796 9.23677 1.74358L9.12279 1.75125H2.3168C2.15127 1.75125 1.99251 1.817 1.87546 1.93404C1.78182 2.02769 1.721 2.14803 1.70042 2.27717L1.69265 2.3754V10.4281C1.69265 10.5936 1.75841 10.7524 1.87545 10.8694C1.96911 10.9631 2.08945 11.0239 2.21858 11.0445L2.3168 11.0522L4.29347 11.0522C4.40407 11.0516 4.51366 11.0728 4.61585 11.1146C4.68406 11.1424 4.74818 11.1791 4.80676 11.2237L4.8903 11.2964L6.53236 12.945L8.50652 11.2538C8.59779 11.1758 8.704 11.1188 8.81762 11.0857L8.93343 11.0607L9.0525 11.0522H10.674C10.8395 11.0522 10.9983 10.9865 11.1153 10.8694C11.2089 10.7758 11.2698 10.6555 11.2903 10.5263L11.2981 10.4281V8.28389C11.2981 7.81998 11.6742 7.44392 12.1381 7.44392C12.5634 7.44392 12.9148 7.75991 12.9704 8.16991L12.9781 8.28389V10.4281C12.9781 11.0393 12.7353 11.6253 12.3032 12.0573C11.9191 12.4415 11.4134 12.6759 10.8766 12.7233L10.674 12.7322L9.39358 12.7062L7.03625 14.7268C6.88412 14.8569 6.6905 14.9284 6.49086 14.9284C6.38035 14.929 6.27079 14.9078 6.16838 14.8661C6.10011 14.8382 6.036 14.8015 5.97747 14.757L5.89406 14.6844L3.99392 12.7322H2.3168C1.70569 12.7322 1.11964 12.4894 0.687564 12.0573C0.303475 11.6733 0.0689813 11.1676 0.0216134 10.6307L0.0126953 10.4281V2.3754C0.0126953 1.76431 0.255448 1.17825 0.687556 0.746147C1.07164 0.362055 1.57738 0.127572 2.11421 0.0802067L2.3168 0.0712891H9.12279ZM6.49026 3.00687C7.15766 3.00687 7.79771 3.27199 8.26963 3.74391C8.74155 4.21582 9.00667 4.85588 9.00667 5.52408C9.00303 6.01127 8.85603 6.48498 8.58631 6.88706L8.5333 6.95921L8.6542 7.03825C9.08186 7.3391 9.4415 7.7252 9.71108 8.17128L9.83826 8.3992L9.94982 8.63642C10.0366 8.84142 10.0384 9.07244 9.95489 9.27872C9.87141 9.48504 9.70948 9.64979 9.50308 9.73746C9.40005 9.77932 9.29018 9.80186 9.17685 9.80396C9.01197 9.80382 8.85078 9.75516 8.71337 9.66405C8.57595 9.57295 8.46839 9.4434 8.40424 9.29193C8.24378 8.91687 7.97698 8.59702 7.63679 8.37187C7.2966 8.14673 6.89792 8.02615 6.49092 8.02503C6.08417 8.02751 5.68698 8.14872 5.34816 8.37378C5.05773 8.56669 4.82102 8.8287 4.65963 9.13247L4.53842 9.39016C4.50269 9.45613 4.4582 9.51717 4.40603 9.57156C4.32778 9.65313 4.23386 9.71808 4.12991 9.7625C4.02595 9.80692 3.91409 9.8299 3.80104 9.83007C3.688 9.83022 3.57609 9.80757 3.472 9.76345C3.36791 9.71932 3.27381 9.65464 3.19533 9.57329C3.11683 9.49192 3.05557 9.39556 3.01523 9.28998C2.97487 9.1844 2.95624 9.07174 2.96045 8.95876C2.96467 8.84577 2.99165 8.73482 3.03815 8.63615C3.31233 7.99316 3.75923 7.44073 4.32698 7.03878L4.44645 6.9592L4.39423 6.88706C4.20157 6.59985 4.07152 6.27606 4.0116 5.93668L3.98413 5.73134L3.97386 5.52327C3.97386 4.85588 4.23898 4.21582 4.7109 3.74391C5.18281 3.27199 5.82288 3.00687 6.49026 3.00687ZM12.1309 0.0712891C12.3535 0.0712891 12.5671 0.159766 12.7245 0.317191C12.8505 0.443139 12.9323 0.605001 12.9599 0.778738L12.9704 0.910891L12.9703 3.66902L13.5481 3.06995L13.6309 2.9968L13.7224 2.93526L13.8214 2.88614C13.9238 2.84352 14.0335 2.82158 14.1443 2.82158C14.255 2.82158 14.3647 2.84352 14.4672 2.88615C14.549 2.92026 14.6248 2.96706 14.7078 3.06361L14.7716 3.14592L14.7397 3.09123C14.8184 3.16927 14.8809 3.26213 14.9234 3.36441C14.9661 3.46667 14.9881 3.57643 14.9881 3.68737C14.9881 3.79831 14.9661 3.90808 14.9235 4.01025C14.8951 4.07851 14.8578 4.14253 14.813 4.20065L14.74 4.28318L12.725 6.29823C12.645 6.37471 12.5509 6.43461 12.4525 6.47261C12.3512 6.51739 12.2416 6.54053 12.1309 6.54053C11.6544 6.54053 11.3421 6.20227 11.2969 5.72643L11.2912 5.60471V0.910891C11.2912 0.688274 11.3797 0.474712 11.5371 0.317191C11.6946 0.159749 11.9082 0.0712891 12.1309 0.0712891ZM6.45385 4.67298L6.3311 4.68747C6.16841 4.71901 6.01876 4.79816 5.90113 4.91488C5.78351 5.0316 5.7032 5.18063 5.67039 5.34305C5.63759 5.50548 5.65377 5.67399 5.71688 5.82722C5.77999 5.98043 5.88721 6.11146 6.02489 6.20366C6.16259 6.29586 6.32457 6.34509 6.49026 6.34509C6.711 6.34509 6.92278 6.25785 7.07945 6.10239C7.23613 5.94693 7.32501 5.73584 7.32672 5.51512C7.32801 5.34941 7.28004 5.18706 7.18892 5.04865C7.09779 4.91025 6.9676 4.80203 6.81489 4.73774C6.70034 4.68951 6.57699 4.66761 6.45385 4.67298Z" fill="#595959"/>
</svg>
