<svg width="16" height="13" viewBox="0 0 16 13" fill="none" xmlns="http://www.w3.org/2000/svg">
<path d="M12.1722 9.79236C12.0503 9.79076 11.9338 9.74162 11.8476 9.65541C11.7614 9.5692 11.7123 9.45273 11.7107 9.33082C11.7123 8.34584 11.3226 7.40056 10.6273 6.70293C9.93194 6.00529 8.98796 5.61245 8.00298 5.61082C7.01801 5.60919 6.07273 5.9989 5.37509 6.69423C4.67746 7.38955 4.28461 8.33354 4.28298 9.31851C4.28298 9.44092 4.23436 9.55831 4.1478 9.64487C4.06125 9.73142 3.94385 9.78005 3.82144 9.78005C3.69904 9.78005 3.58164 9.73142 3.49509 9.64487C3.40853 9.55831 3.35991 9.44092 3.35991 9.31851C3.3372 8.69537 3.44033 8.07404 3.66313 7.49165C3.88593 6.90926 4.22384 6.37775 4.65665 5.92887C5.08947 5.47999 5.60833 5.12296 6.18222 4.8791C6.75611 4.63524 7.37327 4.50956 7.99683 4.50956C8.62038 4.50956 9.23754 4.63524 9.81144 4.8791C10.3853 5.12296 10.9042 5.47999 11.337 5.92887C11.7698 6.37775 12.1077 6.90926 12.3305 7.49165C12.5533 8.07404 12.6565 8.69537 12.6338 9.31851C12.6354 9.38015 12.6247 9.44149 12.6022 9.49892C12.5798 9.55634 12.546 9.60868 12.503 9.65285C12.46 9.69702 12.3517 9.75608 12.3517 9.75608C12.3517 9.75608 12.2339 9.79238 12.1722 9.79236Z" fill="#595959"/>
<path d="M12.603 5.41082C12.5422 5.41219 12.4818 5.40086 12.4256 5.37754C12.3695 5.35423 12.3188 5.31945 12.2768 5.27543C12.2333 5.233 12.1987 5.18229 12.1751 5.12627C12.1514 5.07026 12.1392 5.01007 12.1392 4.94928C12.1392 4.88848 12.1514 4.8283 12.1751 4.77229C12.1987 4.71627 12.2333 4.66555 12.2768 4.62313L13.5876 3.3062C13.6751 3.22468 13.7908 3.18029 13.9104 3.1824C14.03 3.18451 14.144 3.23295 14.2286 3.31751C14.3132 3.40207 14.3616 3.51616 14.3637 3.63573C14.3658 3.7553 14.3214 3.87102 14.2399 3.95851L12.9291 5.27543C12.8865 5.31858 12.8357 5.35278 12.7797 5.37603C12.7237 5.39928 12.6636 5.4111 12.603 5.41082Z" fill="#595959"/>
<path d="M3.39683 5.41082C3.33619 5.4111 3.2761 5.39928 3.22009 5.37603C3.16409 5.35278 3.11329 5.31858 3.07067 5.27543L1.75991 3.95851C1.71636 3.91608 1.68176 3.86536 1.65813 3.80935C1.6345 3.75333 1.62232 3.69315 1.62232 3.63236C1.62232 3.57156 1.6345 3.51138 1.65813 3.45536C1.68176 3.39935 1.71636 3.34863 1.75991 3.3062C1.84644 3.21977 1.96375 3.17122 2.08606 3.17122C2.20837 3.17122 2.32567 3.21977 2.41221 3.3062L3.72298 4.62313C3.80941 4.70966 3.85796 4.82697 3.85796 4.94928C3.85796 5.07159 3.80941 5.18889 3.72298 5.27543C3.68058 5.31886 3.62982 5.35325 3.57377 5.37652C3.51771 5.39979 3.45752 5.41145 3.39683 5.41082Z" fill="#595959"/>
<path d="M7.99991 3.43543C7.8802 3.43221 7.76659 3.38196 7.68366 3.29558C7.60073 3.2092 7.55517 3.09363 7.55683 2.97389V1.16466C7.55683 1.04226 7.60546 0.924862 7.69201 0.838306C7.77857 0.751751 7.89596 0.703125 8.01837 0.703125C8.14077 0.703125 8.25817 0.751751 8.34472 0.838306C8.43128 0.924862 8.47991 1.04226 8.47991 1.16466V2.97389C8.47996 3.03609 8.46743 3.09765 8.44309 3.15489C8.41875 3.21212 8.3831 3.26385 8.33826 3.30696C8.29343 3.35006 8.24035 3.38367 8.1822 3.40574C8.12406 3.42782 8.06205 3.43792 7.99991 3.43543Z" fill="#595959"/>
<path d="M14.7507 9.79236H1.24914C1.12673 9.79236 1.00933 9.74373 0.922779 9.65717C0.836224 9.57062 0.787598 9.45323 0.787598 9.33082C0.787598 9.20841 0.836224 9.09102 0.922779 9.00446C1.00933 8.91791 1.12673 8.86928 1.24914 8.86928H14.7507C14.8731 8.86928 14.9905 8.91791 15.077 9.00446C15.1636 9.09102 15.2122 9.20841 15.2122 9.33082C15.2122 9.45323 15.1636 9.57062 15.077 9.65717C14.9905 9.74373 14.8731 9.79236 14.7507 9.79236Z" fill="#595959"/>
<path d="M12.603 12.297H3.37221C3.24981 12.297 3.13241 12.2483 3.04586 12.1618C2.9593 12.0752 2.91067 11.9578 2.91067 11.8354C2.91067 11.713 2.9593 11.5956 3.04586 11.5091C3.13241 11.4225 3.24981 11.3739 3.37221 11.3739H12.603C12.7254 11.3739 12.8428 11.4225 12.9293 11.5091C13.0159 11.5956 13.0645 11.713 13.0645 11.8354C13.0645 11.9578 13.0159 12.0752 12.9293 12.1618C12.8428 12.2483 12.7254 12.297 12.603 12.297Z" fill="#595959"/>
</svg>
