<svg width="20" height="20" viewBox="0 0 20 20" fill="none" xmlns="http://www.w3.org/2000/svg">
<path fill-rule="evenodd" clip-rule="evenodd" d="M10.0002 2.93631C6.09906 2.93631 2.93656 6.09881 2.93656 9.99995C2.93656 13.9011 6.09906 17.0636 10.0002 17.0636C13.9013 17.0636 17.0638 13.9011 17.0638 9.99995C17.0638 6.09881 13.9013 2.93631 10.0002 2.93631ZM0.700195 9.99995C0.700195 4.8637 4.86395 0.699951 10.0002 0.699951C15.1364 0.699951 19.3002 4.8637 19.3002 9.99995C19.3002 15.1362 15.1364 19.2999 10.0002 19.2999C4.86395 19.2999 0.700195 15.1362 0.700195 9.99995ZM9.20952 7.5179C8.77284 7.08122 8.77284 6.37323 9.20952 5.93655C9.6462 5.49987 10.3542 5.49987 10.7909 5.93655L14.0636 9.20928C14.5003 9.64596 14.5003 10.3539 14.0636 10.7906L10.7909 14.0634C10.3542 14.5 9.6462 14.5 9.20952 14.0634C8.77284 13.6267 8.77284 12.9187 9.20952 12.482L10.5734 11.1181H6.72747C6.10991 11.1181 5.60929 10.6175 5.60929 9.99995C5.60929 9.3824 6.10991 8.88177 6.72747 8.88177H10.5734L9.20952 7.5179Z" fill="white"/>
</svg>
