<svg width="17" height="17" viewBox="0 0 17 17" fill="none" xmlns="http://www.w3.org/2000/svg">
<path fill-rule="evenodd" clip-rule="evenodd" d="M7.9198 1.89036C8.90132 0.908836 10.2326 0.357422 11.6206 0.357422C13.0087 0.357422 14.34 0.908836 15.3215 1.89036C16.303 2.87188 16.8544 4.20311 16.8544 5.5912C16.8544 6.97895 16.3033 8.30988 15.3222 9.29133C13.7692 10.8489 12.2157 12.4071 10.6625 13.9649C10.4593 14.1686 10.1833 14.2832 9.89556 14.2832H4.46714L2.71011 16.0402C2.28717 16.4632 1.60146 16.4632 1.17853 16.0402C0.755595 15.6173 0.755595 14.9316 1.17853 14.5086L2.93556 12.7516V7.32319C2.93556 7.03596 3.04966 6.7605 3.25276 6.5574L7.9198 1.89036ZM13.898 7.64669C14.4055 7.08439 14.6884 6.35238 14.6884 5.5912C14.6884 4.77757 14.3652 3.99726 13.7899 3.42194C13.2146 2.84662 12.4343 2.5234 11.6206 2.5234C10.807 2.5234 10.0267 2.84662 9.45138 3.42194L5.10154 7.77178V10.5856C7.0208 8.66636 8.93785 6.74932 10.8583 4.82886C11.2812 4.40592 11.967 4.40592 12.3899 4.82886C12.8128 5.25179 12.8128 5.93751 12.3899 6.36044L11.1036 7.64669H13.898ZM8.93766 9.81267H11.7438L9.44603 12.1172H6.63312L8.93766 9.81267Z" fill="#595959"/>
</svg>
