<svg width="19" height="18" viewBox="0 0 19 18" fill="none" xmlns="http://www.w3.org/2000/svg">
<path fill-rule="evenodd" clip-rule="evenodd" d="M5.67 16.897L16.6202 12.3923L16.6249 12.3903C17.2932 12.1124 17.8643 11.6427 18.266 11.0406C18.6677 10.4385 18.882 9.73091 18.882 9.0071C18.882 8.28329 18.6677 7.5757 18.266 6.97359C17.9262 6.46424 17.4652 6.04967 16.9266 5.76577C16.8407 5.70236 16.7465 5.6488 16.6452 5.60698L5.73023 1.10067C5.08337 0.833097 4.3729 0.756207 3.68382 0.879495C2.99456 1.00282 2.35507 1.32105 1.84105 1.79651C1.32703 2.27198 0.96001 2.88478 0.783436 3.56235C0.607298 4.23825 0.628027 4.95038 0.843123 5.61484L1.81631 8.67974C1.87961 8.87909 1.87881 9.09326 1.81402 9.29213L0.81487 12.3591C0.593767 13.0264 0.56927 13.7433 0.744353 14.4241C0.919737 15.1062 1.28796 15.7232 1.80493 16.2014C2.47004 16.8179 3.34013 17.1658 4.24692 17.1778L4.26542 17.178C4.74658 17.1776 5.22296 17.0826 5.66736 16.8981L5.67 16.897ZM4.73641 3.50323L15.5083 7.95049L15.5403 7.97409L15.7142 8.06576C15.8706 8.14821 16.0044 8.26862 16.1031 8.41653C16.2198 8.5914 16.282 8.79689 16.282 9.0071C16.282 9.2173 16.2198 9.4228 16.1031 9.59767C15.9865 9.77252 15.8206 9.90893 15.6265 9.98965L4.68083 14.4926L4.67166 14.4964L4.67023 14.4969C4.54407 14.5492 4.40906 14.5767 4.27256 14.5779C4.01243 14.5723 3.76327 14.4715 3.5723 14.2945L3.57045 14.2928C3.42031 14.1539 3.31337 13.9747 3.26243 13.7766C3.21159 13.5789 3.2187 13.3707 3.28291 13.1769L3.287 13.1645L4.23281 10.2612C4.33426 10.2866 4.44043 10.3001 4.54976 10.3001H6.94976C7.66773 10.3001 8.24976 9.71807 8.24976 9.0001C8.24976 8.28213 7.66773 7.7001 6.94976 7.7001H4.54976C4.44466 7.7001 4.34248 7.71257 4.24461 7.73612L3.31899 4.82103L3.31674 4.81408C3.25427 4.62111 3.24826 4.4143 3.29941 4.218C3.35069 4.02122 3.45728 3.84326 3.60656 3.70517C3.75584 3.56709 3.94156 3.47467 4.14173 3.43885C4.34146 3.40312 4.54818 3.42537 4.73641 3.50323Z" fill="white"/>
</svg>
