<svg width="14" height="14" viewBox="0 0 14 14" fill="none" xmlns="http://www.w3.org/2000/svg">
<path fill-rule="evenodd" clip-rule="evenodd" d="M5.27438 11.3008C4.70177 11.8495 3.621 11.6541 3.12245 11.1555C2.63475 10.6678 2.3944 9.55241 2.95804 8.991L5.16172 6.78734C5.34397 6.60509 5.44636 6.3579 5.44636 6.10015C5.44636 5.84241 5.34397 5.59522 5.16172 5.41296C4.97947 5.23071 4.73228 5.12832 4.47453 5.12832C4.21679 5.12832 3.9696 5.23071 3.78735 5.41296L1.57806 7.62794L1.57251 7.63398C0.373271 8.93932 0.494249 11.1266 1.82282 12.4552C3.11287 13.7452 5.33385 13.8786 6.62811 12.6896L6.63415 12.684L8.84878 10.4751C9.03103 10.2929 9.13379 10.0453 9.13379 9.78757C9.13379 9.52982 9.0314 9.28263 8.84915 9.10038C8.6669 8.91813 8.41971 8.81574 8.16196 8.81574C7.90422 8.81574 7.65703 8.91813 7.47478 9.10038L5.27438 11.3008ZM7.75617 1.44985C9.09682 0.117524 11.3201 0.191695 12.7032 1.57485C14.0457 2.91734 14.1266 5.18343 12.8123 6.50595L10.7183 8.60564C10.6282 8.69634 10.5208 8.76869 10.4028 8.81785C10.2846 8.86707 10.1579 8.89241 10.0299 8.89241C9.90193 8.89241 9.77522 8.86707 9.65707 8.81785C9.53944 8.76884 9.43262 8.69712 9.34273 8.6068C9.25241 8.51691 9.18069 8.4101 9.13168 8.29246C9.08246 8.17432 9.05712 8.0476 9.05712 7.91961C9.05712 7.79163 9.08246 7.66491 9.13168 7.54677C9.1808 7.42887 9.25273 7.32185 9.34332 7.23184L9.3439 7.23127L11.437 5.13816C11.9306 4.64657 12.0025 3.62286 11.3289 2.94923C10.6841 2.30444 9.63245 2.33746 9.12125 2.82782L7.02968 4.91937C6.93943 5.00961 6.8323 5.0812 6.71439 5.13004C6.59649 5.17887 6.47012 5.20401 6.34249 5.20401C6.21487 5.20401 6.0885 5.17887 5.97059 5.13004C5.85268 5.0812 5.74555 5.00961 5.65531 4.91937C5.56506 4.82913 5.49348 4.722 5.44464 4.60409C5.3958 4.48618 5.37066 4.35981 5.37066 4.23219C5.37066 4.10456 5.3958 3.97819 5.44464 3.86028C5.49348 3.74237 5.56506 3.63524 5.65531 3.545L7.75617 1.44985ZM5.17246 7.73121L5.17321 7.73046L7.97398 4.92969C8.15623 4.74744 8.40342 4.64505 8.66116 4.64505C8.91891 4.64505 9.1661 4.74744 9.34835 4.92969C9.5306 5.11195 9.63299 5.35913 9.63299 5.61688C9.63299 5.87462 9.5306 6.12181 9.34835 6.30407L6.54527 9.10714C6.45467 9.197 6.34724 9.26808 6.22912 9.31633C6.11171 9.36429 5.98604 9.38874 5.85923 9.38831C5.73243 9.38874 5.60676 9.36429 5.48935 9.31633C5.37123 9.26808 5.26379 9.197 5.1732 9.10714M5.1732 9.10714C5.08234 9.01702 5.01021 8.90979 4.96099 8.79165C4.91177 8.67351 4.88643 8.54679 4.88643 8.41881C4.88643 8.29082 4.91177 8.1641 4.96099 8.04596C5.01008 7.92814 5.08194 7.82118 5.17246 7.73121" fill="url(#paint0_linear)"/>
<defs>
<linearGradient id="paint0_linear" x1="0.744629" y1="6.99991" x2="13.7553" y2="6.99991" gradientUnits="userSpaceOnUse">
<stop stop-color="#00D2FF"/>
<stop offset="1" stop-color="#3A7BD5"/>
</linearGradient>
</defs>
</svg>
