<svg width="16" height="13" viewBox="0 0 16 13" fill="none" xmlns="http://www.w3.org/2000/svg">
<path d="M8.03362 6.49987C8.03362 6.73676 8.10387 6.96834 8.23548 7.16531C8.36709 7.36228 8.55416 7.51581 8.77302 7.60646C8.99189 7.69712 9.23272 7.72084 9.46506 7.67462C9.6974 7.6284 9.91083 7.51433 10.0783 7.34682C10.2458 7.17931 10.3599 6.96589 10.4061 6.73354C10.4524 6.5012 10.4286 6.26037 10.338 6.0415C10.2473 5.82264 10.0938 5.63557 9.89683 5.50396C9.69986 5.37235 9.46828 5.3021 9.23139 5.3021C8.91372 5.3021 8.60906 5.42829 8.38444 5.65292C8.15981 5.87754 8.03362 6.1822 8.03362 6.49987Z" fill="#595959"/>
<path fill-rule="evenodd" clip-rule="evenodd" d="M10.4953 0.741019L15.5382 5.78386C15.6327 5.87762 15.7077 5.98917 15.7589 6.11207C15.8101 6.23498 15.8365 6.3668 15.8365 6.49995C15.8365 6.63309 15.8101 6.76491 15.7589 6.88782C15.7077 7.01072 15.6327 7.12227 15.5382 7.21603L10.4953 12.2589C10.4011 12.3523 10.2893 12.4263 10.1664 12.4765C10.0436 12.5267 9.91198 12.5521 9.77924 12.5514H3.25642C2.45395 12.5514 1.68435 12.2326 1.11692 11.6651C0.549492 11.0977 0.230713 10.3281 0.230713 9.52565V3.47424C0.230713 2.67177 0.549492 1.90217 1.11692 1.33474C1.68435 0.767313 2.45395 0.448534 3.25642 0.448534H9.77924C9.91198 0.447766 10.0436 0.473207 10.1664 0.523398C10.2893 0.57359 10.4011 0.647543 10.4953 0.741019ZM3.25642 10.5342H9.36573L13.4 6.49995L9.36573 2.46567H3.25642C2.98893 2.46567 2.7324 2.57193 2.54325 2.76107C2.35411 2.95022 2.24785 3.20675 2.24785 3.47424V9.52565C2.24785 9.79314 2.35411 10.0497 2.54325 10.2388C2.7324 10.428 2.98893 10.5342 3.25642 10.5342Z" fill="#595959"/>
</svg>
