<svg width="22" height="21" viewBox="0 0 22 21" fill="none" xmlns="http://www.w3.org/2000/svg">
<path fill-rule="evenodd" clip-rule="evenodd" d="M9 0.582214C8.20435 0.582214 7.44129 0.898285 6.87868 1.46089C6.31607 2.0235 6 2.78656 6 3.58221V4.58221H3C1.34315 4.58221 0 5.92536 0 7.58221V17.5822C0 19.2391 1.34315 20.5822 3 20.5822H19C20.6569 20.5822 22 19.2391 22 17.5822V7.58221C22 5.92536 20.6569 4.58221 19 4.58221H16V3.58221C16 2.78656 15.6839 2.0235 15.1213 1.46089C14.5587 0.898285 13.7956 0.582214 13 0.582214H9ZM14 4.58221V3.58221C14 3.317 13.8946 3.06264 13.7071 2.87511C13.5196 2.68757 13.2652 2.58221 13 2.58221H9C8.73478 2.58221 8.48043 2.68757 8.29289 2.87511C8.10536 3.06264 8 3.317 8 3.58221V4.58221H14ZM8 6.58221H14V18.5822H8V6.58221ZM6 6.58221H3C2.44772 6.58221 2 7.02993 2 7.58221V17.5822C2 18.1345 2.44772 18.5822 3 18.5822H6V6.58221ZM16 18.5822V6.58221H19C19.5523 6.58221 20 7.02993 20 7.58221V17.5822C20 18.1345 19.5523 18.5822 19 18.5822H16Z" fill="#595959"/>
</svg>
