<svg width="22" height="22" viewBox="0 0 22 22" fill="none" xmlns="http://www.w3.org/2000/svg">
<path d="M13.1205 13.4343L13.5159 13.4387C16.2673 13.4985 18.816 14.1672 20.6348 15.4922C21.4383 16.0748 21.7824 16.7425 21.7824 17.4136C21.7824 18.0844 21.4384 18.7524 20.6349 19.3364C20.063 19.7515 19.2779 20.1135 18.3067 20.4109C16.4141 20.9937 13.9181 21.3136 11.2762 21.3136C8.63432 21.3136 6.13827 20.9937 4.2457 20.4109C3.26973 20.1107 2.48659 19.7495 1.91755 19.335C1.11409 18.7524 0.770004 18.0846 0.770004 17.4136C0.770004 16.8927 0.980224 16.3581 1.4756 15.8656C2.5748 14.7614 4.37986 14.1114 6.51707 13.8276C6.76747 13.7999 7.01879 13.8713 7.21727 14.0266C7.41565 14.182 7.54537 14.4088 7.57864 14.6585C7.6119 14.9082 7.54608 15.161 7.3952 15.363C7.2695 15.5311 7.09311 15.6526 6.89336 15.711L6.77092 15.7384L6.45928 15.786L5.99917 15.8691C4.18358 16.2213 2.69803 16.8089 2.69803 17.4136C2.69803 17.4516 2.81166 17.6022 3.05109 17.7766C3.43635 18.0569 4.04647 18.332 4.81268 18.5678C6.52159 19.0946 8.81832 19.3856 11.2762 19.3856C13.7339 19.3856 16.0307 19.0946 17.7412 18.5678C18.5027 18.3334 19.1136 18.0573 19.5017 17.7764C19.7405 17.6033 19.8543 17.4523 19.8543 17.4136C19.8543 17.3755 19.7408 17.2251 19.5013 17.0505C18.0292 15.9794 16.1395 15.4653 13.861 15.3764L13.4549 15.3651L13.1224 15.3623L12.7661 15.3638C12.6395 15.3654 12.5138 15.3419 12.3962 15.2949C12.2786 15.2478 12.1715 15.1781 12.081 15.0897C11.9904 15.0013 11.9182 14.8959 11.8681 14.7793C11.8183 14.6628 11.7919 14.5377 11.7904 14.4115C11.7888 14.2849 11.8123 14.1592 11.8594 14.0416C11.9063 13.9241 11.976 13.8171 12.0646 13.7263C12.1531 13.6357 12.2584 13.5635 12.3749 13.5136C12.4266 13.4915 12.48 13.4739 12.5389 13.4607L12.6321 13.4439L12.7447 13.4358L13.1205 13.4343ZM19.3716 0.519794L19.5044 0.533504C19.5632 0.543839 19.6217 0.559927 19.6805 0.582153L19.7689 0.620145L19.8738 0.679379C20.0229 0.778246 20.1415 0.91664 20.2163 1.07894C20.2584 1.17005 20.2858 1.26692 20.2978 1.37354L20.3045 1.48355L20.2957 1.61628L20.2177 2.13551L20.1586 2.47301C20.0109 3.27674 19.8121 4.10576 19.5545 4.90678C18.7645 7.35692 17.6389 8.83133 16.1905 9.26259C15.692 9.41049 15.1924 9.48089 14.4656 9.52402L13.348 9.57727L12.918 9.60484C12.6576 9.62497 12.4444 9.64937 12.2451 9.68274L12.0977 9.70952L11.8062 9.77493C11.1764 9.93146 10.6462 10.513 9.9923 11.5832L9.761 11.9723L11.9621 17.0561C11.9843 17.1079 12.0019 17.1614 12.0147 17.216L12.0303 17.2985L12.0402 17.4241C12.0419 17.5509 12.0185 17.6767 11.9715 17.7945C11.9245 17.912 11.8548 18.0193 11.7665 18.11C11.678 18.2008 11.5726 18.2732 11.4561 18.3232C11.3399 18.3731 11.215 18.3997 11.0872 18.4018C10.9606 18.403 10.835 18.3796 10.7177 18.3328C10.5196 18.2538 10.3545 18.1118 10.2466 17.9309L10.189 17.8178L7.85108 12.4128L7.80138 12.3125L4.3074 4.16474C4.23764 4.00165 4.21423 3.82248 4.23975 3.64696C4.25888 3.51532 4.30498 3.38956 4.37796 3.27351L4.4599 3.16085L4.57733 3.03376C4.82537 2.78324 5.15956 2.52046 5.58599 2.27254L5.80692 2.14995L6.22818 1.92971C7.29432 1.38617 8.04351 1.18093 9.24159 1.18093C9.84567 1.18093 10.9138 1.51181 11.7983 1.91754L12.0152 2.02038L12.581 2.31264C13.2514 2.64973 13.6971 2.7775 14.1669 2.727C14.861 2.65171 16.5625 1.89793 18.1472 1.0434L18.3963 0.907717L18.8618 0.646468C19.0167 0.557862 19.1932 0.514005 19.3716 0.519794ZM18.3491 2.85583L17.3115 3.39943L17.0079 3.55282C16.1925 3.95616 15.3298 4.30603 14.3502 4.41488C14.2313 4.42809 14.1139 4.43396 13.9994 4.43396C13.161 4.43396 12.4879 4.16666 11.831 3.83628L11.6125 3.7241L11.0734 3.4377C10.5655 3.16899 9.95382 2.87896 9.24159 2.87896C8.31308 2.87896 7.78008 3.04256 7.36955 3.23821L7.26931 3.28771L6.82414 3.53235L6.53321 3.687C6.39327 3.76462 6.27319 3.84044 6.17235 3.91066L6.0779 3.97887L8.8055 10.3325L8.97872 10.0976L9.15454 9.86971C9.9086 8.91137 10.5679 8.33358 11.3939 8.12774C11.8346 8.01747 12.2956 7.96807 12.7631 7.93899L13.1146 7.92035L13.7964 7.89177C14.4539 7.86218 15.1035 7.81405 15.7067 7.63572C16.5479 7.38616 17.3391 6.23816 17.9322 4.40607C18.1084 3.85996 18.2464 3.3212 18.3491 2.85583Z" fill="#595959"/>
</svg>
