<svg width="10" height="13" viewBox="0 0 10 13" fill="none" xmlns="http://www.w3.org/2000/svg">
<path d="M7.90865 4.41035C7.87297 4.37397 7.83339 4.34214 7.7907 4.31551C7.73029 4.2779 7.66322 4.25379 7.59364 4.24469C7.52407 4.23558 7.45347 4.24167 7.38621 4.26257C7.31895 4.28348 7.25645 4.31876 7.20259 4.36622C7.14873 4.41369 7.10464 4.47235 7.07306 4.53855C6.89641 4.90673 6.65278 5.2344 6.35614 5.50274C6.4015 5.23237 6.42437 4.95831 6.4245 4.68371C6.42545 3.84833 6.21713 3.0276 5.82073 2.30509C5.42434 1.58258 4.85404 0.984092 4.16789 0.57056C4.09231 0.525233 4.00708 0.500964 3.92019 0.500028C3.83331 0.499093 3.74763 0.521522 3.67119 0.565212C3.59475 0.608901 3.53005 0.672418 3.48317 0.749804C3.43629 0.827189 3.40876 0.915904 3.40317 1.00763C3.37447 1.522 3.24736 2.02486 3.02953 2.48573C2.8117 2.9466 2.50768 3.35589 2.13591 3.6888L2.01772 3.79052C1.62896 4.06723 1.28485 4.40836 0.998593 4.80079C0.553627 5.39379 0.245387 6.0883 0.0983165 6.82925C-0.0487542 7.5702 -0.0306098 8.33721 0.151311 9.06946C0.333231 9.8017 0.673923 10.479 1.14637 11.0477C1.61882 11.6165 2.21002 12.0609 2.87311 12.3458C2.95096 12.3795 3.03545 12.3924 3.11912 12.3833C3.20278 12.3743 3.28306 12.3436 3.35286 12.2939C3.42267 12.2443 3.47985 12.1773 3.51938 12.0987C3.5589 12.0202 3.57955 11.9326 3.57949 11.8436C3.57913 11.7861 3.57052 11.7289 3.55396 11.6741C3.43922 11.2179 3.40619 10.743 3.45655 10.2739C3.9418 11.2421 4.72072 12.0095 5.66808 12.4528C5.78372 12.5076 5.91444 12.5149 6.03492 12.4735C6.78341 12.2179 7.4577 11.7642 7.99371 11.1553C8.52972 10.5464 8.90966 9.80266 9.09741 8.99469C9.28517 8.18673 9.27451 7.34141 9.06644 6.53903C8.85838 5.73665 8.45983 5.00388 7.90865 4.41035Z" fill="white"/>
</svg>
