<svg width="14" height="15" viewBox="0 0 14 15" fill="none" xmlns="http://www.w3.org/2000/svg">
<path fill-rule="evenodd" clip-rule="evenodd" d="M6.36364 0.532297C6.784 0.0278628 7.48659 -0.139059 8.08891 0.122404C8.69124 0.383868 9.04909 1.01112 8.96764 1.66268L8.57339 4.81671H12.3166C12.8905 4.81671 13.4126 5.14872 13.656 5.66846C13.8995 6.1882 13.8203 6.80186 13.4529 7.24276L7.43208 14.4677C7.01171 14.9721 6.30912 15.1391 5.7068 14.8776C5.10448 14.6161 4.74663 13.9889 4.82807 13.3373L5.22232 10.1833H1.47915C0.905219 10.1833 0.383098 9.85128 0.139664 9.33154C-0.103772 8.8118 -0.0245711 8.19815 0.342849 7.75724L6.36364 0.532297Z" fill="url(#paint0_linear)"/>
<defs>
<linearGradient id="paint0_linear" x1="12.9187" y1="0.8771" x2="-1.92461" y2="13.7603" gradientUnits="userSpaceOnUse">
<stop stop-color="#0095E9"/>
<stop offset="0.449222" stop-color="#00E0FF"/>
<stop offset="1" stop-color="#00FF94"/>
</linearGradient>
</defs>
</svg>
