<svg width="18" height="14" viewBox="0 0 18 14" fill="none" xmlns="http://www.w3.org/2000/svg">
<path fill-rule="evenodd" clip-rule="evenodd" d="M9.25011 4.16989C7.68722 4.16989 6.42024 5.43687 6.42024 6.99976C6.42024 8.56265 7.68722 9.82962 9.25011 9.82962C10.813 9.82962 12.08 8.56265 12.08 6.99976C12.08 5.43687 10.813 4.16989 9.25011 4.16989ZM7.82024 6.99976C7.82024 6.21006 8.46041 5.56989 9.25011 5.56989C10.0398 5.56989 10.68 6.21006 10.68 6.99976C10.68 7.78945 10.0398 8.42962 9.25011 8.42962C8.46041 8.42962 7.82024 7.78945 7.82024 6.99976Z" fill="#8C8C8C"/>
<path fill-rule="evenodd" clip-rule="evenodd" d="M17.6855 6.68622C17.6855 6.68622 17.6857 6.68671 17.0596 6.99976C17.6857 7.31281 17.6855 7.3133 17.6855 7.3133L17.6843 7.31557L17.6819 7.32039L17.6739 7.33611C17.6671 7.34925 17.6576 7.36764 17.6452 7.39095C17.6206 7.43755 17.5848 7.50383 17.538 7.58699C17.4445 7.75321 17.3068 7.98741 17.1263 8.26697C16.766 8.82475 16.2305 9.57021 15.5292 10.3183C14.1392 11.801 12.0146 13.3794 9.25011 13.3794C6.48561 13.3794 4.36102 11.801 2.97105 10.3183C2.26967 9.57021 1.73418 8.82475 1.37395 8.26697C1.19339 7.98741 1.05573 7.75321 0.962226 7.58699C0.91545 7.50383 0.87965 7.43755 0.854991 7.39095C0.842659 7.36764 0.833106 7.34925 0.826352 7.33611L0.815884 7.31557C0.773729 7.23171 0.772797 6.77007 0.814747 6.68622L0.815884 6.68396L0.818321 6.67913L0.826352 6.66341C0.833106 6.65027 0.842659 6.63188 0.854991 6.60857C0.87965 6.56197 0.91545 6.49569 0.962226 6.41253C1.05573 6.24631 1.19339 6.01211 1.37395 5.73255C1.73418 5.17477 2.26967 4.42931 2.97105 3.68118C4.36102 2.19854 6.48561 0.620117 9.25011 0.620117C12.0146 0.620117 14.1392 2.19854 15.5292 3.68118C16.2305 4.42931 16.766 5.17477 17.1263 5.73255C17.3068 6.01211 17.4445 6.24631 17.538 6.41253C17.5848 6.49569 17.6206 6.56197 17.6452 6.60857C17.6576 6.63188 17.6671 6.65027 17.6739 6.66341L17.6819 6.67913L17.6843 6.68396L17.6855 6.68622ZM2.55 7.50744C2.42089 7.30752 2.31697 7.13472 2.23897 6.99976C2.31697 6.86481 2.42089 6.692 2.55 6.49208C2.87754 5.98493 3.3626 5.31048 3.9924 4.6387C5.26475 3.28152 7.04492 2.02012 9.25011 2.02012C11.4553 2.02012 13.2355 3.28152 14.5078 4.6387C15.1376 5.31048 15.6227 5.98493 15.9502 6.49208C16.0793 6.692 16.1833 6.8648 16.2612 6.99976C16.1833 7.13471 16.0793 7.30753 15.9502 7.50744C15.6227 8.01459 15.1376 8.68904 14.5078 9.36082C13.2355 10.718 11.4553 11.9794 9.25011 11.9794C7.04492 11.9794 5.26475 10.718 3.9924 9.36082C3.3626 8.68904 2.87754 8.01459 2.55 7.50744Z" fill="#8C8C8C"/>
<path d="M17.0596 6.99976L17.6855 6.68622C17.784 6.88329 17.784 7.11623 17.6855 7.3133L17.0596 6.99976Z" fill="#8C8C8C"/>
<path d="M0.8145 7.31281C1.45841 6.99086 1.4584 7.00868 0.814747 6.68622C0.716213 6.88329 0.715966 7.11574 0.8145 7.31281Z" fill="#8C8C8C"/>
</svg>
